M48
; DRILL file {KiCad 8.0.9-1.fc40} date 2025-06-25T20:03:58+0200
; FORMAT={-:-/ absolute / inch / decimal}
; #@! TF.CreationDate,2025-06-25T20:03:58+02:00
; #@! TF.GenerationSoftware,Kicad,Pcbnew,8.0.9-1.fc40
; #@! TF.FileFunction,Plated,1,2,PTH
FMAT,2
INCH
; #@! TA.AperFunction,Plated,PTH,ComponentDrill
T1C0.0315
; #@! TA.AperFunction,Plated,PTH,ComponentDrill
T2C0.0394
%
G90
G05
T1
X4.6Y-1.8
X4.6Y-1.9
X4.6Y-2.0
X4.6Y-2.1
X4.6Y-2.2
X4.6Y-2.3
X4.6Y-2.4
X4.6Y-2.5
X4.6Y-2.6
X4.6Y-2.7
X4.6Y-2.8
X4.6Y-2.9
X4.9Y-1.8
X4.9Y-1.9
X4.9Y-2.0
X4.9Y-2.1
X4.9Y-2.2
X4.9Y-2.3
X4.9Y-2.4
X4.9Y-2.5
X4.9Y-2.6
X4.9Y-2.7
X4.9Y-2.8
X4.9Y-2.9
X5.1Y-2.3
X5.1Y-2.7
X5.2Y-1.7
X5.2Y-1.7984
X5.4Y-1.8
X5.4Y-1.8984
T2
X4.2Y-2.5
X4.2Y-2.6
X4.2Y-2.7
X4.2Y-2.8
X4.2Y-2.9
X4.3Y-1.8
X4.3Y-1.9
X4.3Y-2.0
X4.3Y-2.1
X4.3Y-2.5
X4.3Y-2.6
X4.3Y-2.7
X4.3Y-2.8
X4.3Y-2.9
X5.3Y-2.9
X5.3Y-3.0
X5.3Y-3.1
X5.6Y-1.7
X5.6Y-1.8
X5.6Y-1.9
X5.6Y-2.0
X5.6Y-2.1
X5.6Y-2.2
X5.6Y-2.3
X5.6Y-2.4
X5.6Y-2.5
X5.7Y-2.5
X5.7Y-3.0
X5.7Y-3.1
X5.8Y-2.5
X5.8Y-3.0
X5.8Y-3.1
X5.9Y-2.5
X5.9Y-3.0
X5.9Y-3.1
X6.0Y-2.5
X6.0Y-3.0
X6.0Y-3.1
X6.1Y-2.5
X6.1Y-3.0
X6.1Y-3.1
X6.2Y-1.7
X6.2Y-1.8
X6.2Y-1.9
X6.2Y-2.0
X6.2Y-2.1
X6.2Y-2.2
X6.2Y-2.3
X6.2Y-2.4
X6.2Y-2.5
X6.2Y-3.0
X6.2Y-3.1
M30
