%TF.GenerationSoftware,KiCad,Pcbnew,8.0.9-1.fc40*%
%TF.CreationDate,2025-06-27T18:33:29+02:00*%
%TF.ProjectId,simple-midi-controller,73696d70-6c65-42d6-9d69-64692d636f6e,rev?*%
%TF.SameCoordinates,Original*%
%TF.FileFunction,Copper,L2,Bot*%
%TF.FilePolarity,Positive*%
%FSLAX46Y46*%
G04 Gerber Fmt 4.6, Leading zero omitted, Abs format (unit mm)*
G04 Created by KiCad (PCBNEW 8.0.9-1.fc40) date 2025-06-27 18:33:29*
%MOMM*%
%LPD*%
G01*
G04 APERTURE LIST*
%TA.AperFunction,ComponentPad*%
%ADD10R,1.600000X1.600000*%
%TD*%
%TA.AperFunction,ComponentPad*%
%ADD11C,1.600000*%
%TD*%
%TA.AperFunction,ComponentPad*%
%ADD12R,1.700000X1.700000*%
%TD*%
%TA.AperFunction,ComponentPad*%
%ADD13O,1.700000X1.700000*%
%TD*%
%TA.AperFunction,ComponentPad*%
%ADD14O,1.600000X1.600000*%
%TD*%
%TA.AperFunction,ComponentPad*%
%ADD15R,1.800000X1.800000*%
%TD*%
%TA.AperFunction,ComponentPad*%
%ADD16C,1.800000*%
%TD*%
%TA.AperFunction,Conductor*%
%ADD17C,1.000000*%
%TD*%
%TA.AperFunction,Conductor*%
%ADD18C,0.400000*%
%TD*%
%TA.AperFunction,Conductor*%
%ADD19C,0.300000*%
%TD*%
%TA.AperFunction,Conductor*%
%ADD20C,0.500000*%
%TD*%
G04 APERTURE END LIST*
D10*
%TO.P,C2,1*%
%TO.N,+5V*%
X132080000Y-43180000D03*
D11*
%TO.P,C2,2*%
%TO.N,GND*%
X132080000Y-45680000D03*
%TD*%
D12*
%TO.P,J1,1,Pin_1*%
%TO.N,ROW_3*%
X157480000Y-78740000D03*
D13*
%TO.P,J1,2,Pin_2*%
%TO.N,ROW_2*%
X157480000Y-76200000D03*
%TO.P,J1,3,Pin_3*%
%TO.N,ROW_1*%
X154940000Y-78740000D03*
%TO.P,J1,4,Pin_4*%
%TO.N,ROW_0*%
X154940000Y-76200000D03*
%TO.P,J1,5,Pin_5*%
%TO.N,ROW_A*%
X152400000Y-78740000D03*
%TO.P,J1,6,Pin_6*%
%TO.N,ROW_B*%
X152400000Y-76200000D03*
%TO.P,J1,7,Pin_7*%
%TO.N,ROW_C*%
X149860000Y-78740000D03*
%TO.P,J1,8,Pin_8*%
%TO.N,ROW_D*%
X149860000Y-76200000D03*
%TO.P,J1,9,Pin_9*%
%TO.N,ROW_E*%
X147320000Y-78740000D03*
%TO.P,J1,10,Pin_10*%
%TO.N,ROW_F*%
X147320000Y-76200000D03*
%TO.P,J1,11,Pin_11*%
%TO.N,ROW_G*%
X144780000Y-78740000D03*
%TO.P,J1,12,Pin_12*%
%TO.N,ROW_H*%
X144780000Y-76200000D03*
%TD*%
D10*
%TO.P,U1,1,DIN*%
%TO.N,Spi_mosi*%
X124460000Y-73660000D03*
D14*
%TO.P,U1,2,DIG_0*%
%TO.N,DIG_0*%
X124460000Y-71120000D03*
%TO.P,U1,3,DIG_4*%
%TO.N,unconnected-(U1-DIG_4-Pad3)*%
X124460000Y-68580000D03*
%TO.P,U1,4,GND*%
%TO.N,GND*%
X124460000Y-66040000D03*
%TO.P,U1,5,DIG_6*%
%TO.N,unconnected-(U1-DIG_6-Pad5)*%
X124460000Y-63500000D03*
%TO.P,U1,6,DIG_2*%
%TO.N,unconnected-(U1-DIG_2-Pad6)*%
X124460000Y-60960000D03*
%TO.P,U1,7,DIG_3*%
%TO.N,unconnected-(U1-DIG_3-Pad7)*%
X124460000Y-58420000D03*
%TO.P,U1,8,DIG_7*%
%TO.N,unconnected-(U1-DIG_7-Pad8)*%
X124460000Y-55880000D03*
%TO.P,U1,9,GND*%
%TO.N,GND*%
X124460000Y-53340000D03*
%TO.P,U1,10,DIG_5*%
%TO.N,unconnected-(U1-DIG_5-Pad10)*%
X124460000Y-50800000D03*
%TO.P,U1,11,DIG_1*%
%TO.N,DIG_1*%
X124460000Y-48260000D03*
%TO.P,U1,12,LOAD*%
%TO.N,Spi_load*%
X124460000Y-45720000D03*
%TO.P,U1,13,CLK*%
%TO.N,Spi_sck*%
X116840000Y-45720000D03*
%TO.P,U1,14,SEG_A*%
%TO.N,SEG_A*%
X116840000Y-48260000D03*
%TO.P,U1,15,SEG_F*%
%TO.N,SEG_F*%
X116840000Y-50800000D03*
%TO.P,U1,16,SEG_B*%
%TO.N,SEG_B*%
X116840000Y-53340000D03*
%TO.P,U1,17,SEG_G*%
%TO.N,SEG_G*%
X116840000Y-55880000D03*
%TO.P,U1,18,ISET*%
%TO.N,Net-(U1-ISET)*%
X116840000Y-58420000D03*
%TO.P,U1,19,V+*%
%TO.N,+5V*%
X116840000Y-60960000D03*
%TO.P,U1,20,SEG_C*%
%TO.N,SEG_C*%
X116840000Y-63500000D03*
%TO.P,U1,21,SEG_E*%
%TO.N,SEG_E*%
X116840000Y-66040000D03*
%TO.P,U1,22,SEG_DP*%
%TO.N,SEG_DP*%
X116840000Y-68580000D03*
%TO.P,U1,23,SEG_D*%
%TO.N,SEG_D*%
X116840000Y-71120000D03*
%TO.P,U1,24,DOUT*%
%TO.N,unconnected-(U1-DOUT-Pad24)*%
X116840000Y-73660000D03*
%TD*%
D12*
%TO.P,J2,1,Pin_1*%
%TO.N,GND*%
X134620000Y-78740000D03*
D13*
%TO.P,J2,2,Pin_2*%
%TO.N,Bank_down*%
X134620000Y-76200000D03*
%TO.P,J2,3,Pin_3*%
%TO.N,Bank_up*%
X134620000Y-73660000D03*
%TD*%
D12*
%TO.P,J4,1,Pin_1*%
%TO.N,+5V*%
X109220000Y-45720000D03*
D13*
%TO.P,J4,2,Pin_2*%
%TO.N,midi_rx*%
X109220000Y-48260000D03*
%TO.P,J4,3,Pin_3*%
%TO.N,midi_tx*%
X109220000Y-50800000D03*
%TO.P,J4,4,Pin_4*%
%TO.N,GND*%
X109220000Y-53340000D03*
%TD*%
D15*
%TO.P,U2,0,GPIO_0*%
%TO.N,ROW_0*%
X157480000Y-43180000D03*
D16*
%TO.P,U2,1,GPIO_1*%
%TO.N,ROW_1*%
X157480000Y-45720000D03*
%TO.P,U2,2,GPIO_2*%
%TO.N,ROW_2*%
X157480000Y-48260000D03*
%TO.P,U2,3,GPIO_3*%
%TO.N,ROW_3*%
X157480000Y-50800000D03*
%TO.P,U2,4,GPIO_4*%
%TO.N,ROW_A*%
X157480000Y-53340000D03*
%TO.P,U2,5,GPIO_5*%
%TO.N,ROW_B*%
X157480000Y-55880000D03*
%TO.P,U2,6,GPIO_6*%
%TO.N,ROW_C*%
X157480000Y-58420000D03*
%TO.P,U2,7,GPIO_7*%
%TO.N,ROW_D*%
X157480000Y-60960000D03*
%TO.P,U2,8,GPIO_8*%
%TO.N,ROW_E*%
X157480000Y-63500000D03*
%TO.P,U2,9,GPIO_9*%
%TO.N,ROW_F*%
X154940000Y-63500000D03*
%TO.P,U2,10,GPIO_10*%
%TO.N,ROW_G*%
X152400000Y-63500000D03*
%TO.P,U2,11,GPIO_11*%
%TO.N,ROW_H*%
X149860000Y-63500000D03*
%TO.P,U2,12,GPIO_12*%
%TO.N,Bank_up*%
X147320000Y-63500000D03*
%TO.P,U2,13,GPIO_13*%
%TO.N,Bank_down*%
X144780000Y-63500000D03*
%TO.P,U2,14,GPIO_14*%
%TO.N,unconnected-(U2-GPIO_14-Pad14)*%
X142240000Y-63500000D03*
%TO.P,U2,15,GPIO_15*%
%TO.N,Spi_load*%
X142240000Y-60960000D03*
%TO.P,U2,16,GPIO_26*%
%TO.N,Spi_sck*%
X142240000Y-58420000D03*
%TO.P,U2,17,GPIO_27*%
%TO.N,Spi_mosi*%
X142240000Y-55880000D03*
%TO.P,U2,18,GPIO_28*%
%TO.N,midi_tx*%
X142240000Y-53340000D03*
%TO.P,U2,19,GPIO_29*%
%TO.N,midi_rx*%
X142240000Y-50800000D03*
%TO.P,U2,20,3V3*%
%TO.N,+3V3*%
X142240000Y-48260000D03*
%TO.P,U2,21,GND*%
%TO.N,GND*%
X142240000Y-45720000D03*
%TO.P,U2,22,5V*%
%TO.N,+5V*%
X142240000Y-43180000D03*
%TD*%
D12*
%TO.P,J3,1,Pin_1*%
%TO.N,SEG_G*%
X109220000Y-63500000D03*
D13*
%TO.P,J3,2,Pin_2*%
%TO.N,SEG_F*%
X106680000Y-63500000D03*
%TO.P,J3,3,Pin_3*%
%TO.N,SEG_D*%
X109220000Y-66040000D03*
%TO.P,J3,4,Pin_4*%
%TO.N,DIG_1*%
X106680000Y-66040000D03*
%TO.P,J3,5,Pin_5*%
%TO.N,SEG_E*%
X109220000Y-68580000D03*
%TO.P,J3,6,Pin_6*%
%TO.N,DIG_0*%
X106680000Y-68580000D03*
%TO.P,J3,7,Pin_7*%
%TO.N,SEG_DP*%
X109220000Y-71120000D03*
%TO.P,J3,8,Pin_8*%
%TO.N,SEG_B*%
X106680000Y-71120000D03*
%TO.P,J3,9,Pin_9*%
%TO.N,SEG_C*%
X109220000Y-73660000D03*
%TO.P,J3,10,Pin_10*%
%TO.N,SEG_A*%
X106680000Y-73660000D03*
%TD*%
D11*
%TO.P,R1,1*%
%TO.N,+5V*%
X129540000Y-68580000D03*
D14*
%TO.P,R1,2*%
%TO.N,Net-(U1-ISET)*%
X129540000Y-58420000D03*
%TD*%
D10*
%TO.P,C1,1*%
%TO.N,+3V3*%
X137160000Y-48220000D03*
D11*
%TO.P,C1,2*%
%TO.N,GND*%
X137160000Y-45720000D03*
%TD*%
D17*
%TO.N,+3V3*%
X142240000Y-48260000D02*
X137200000Y-48260000D01*
X137200000Y-48260000D02*
X137160000Y-48220000D01*
%TO.N,GND*%
X132120000Y-45720000D02*
X132080000Y-45680000D01*
D18*
%TO.N,+5V*%
X111760000Y-43180000D02*
X123520000Y-43180000D01*
D19*
X129540000Y-68580000D02*
X129540000Y-61440000D01*
D17*
X132080000Y-43180000D02*
X142240000Y-43180000D01*
D19*
X122500000Y-59700000D02*
X121700000Y-58900000D01*
D20*
X121700000Y-58900000D02*
X121700000Y-45000000D01*
X121700000Y-45000000D02*
X123520000Y-43180000D01*
X119640000Y-60960000D02*
X121700000Y-58900000D01*
D18*
X109220000Y-45720000D02*
X111760000Y-43180000D01*
D19*
X129540000Y-61440000D02*
X127800000Y-59700000D01*
X127800000Y-59700000D02*
X122500000Y-59700000D01*
D20*
X123520000Y-43180000D02*
X132080000Y-43180000D01*
X116840000Y-60960000D02*
X119640000Y-60960000D01*
%TD*%
%TA.AperFunction,Conductor*%
%TO.N,GND*%
G36*
X166937619Y-39520185D02*
G01*
X166983374Y-39572989D01*
X166993318Y-39642147D01*
X166964293Y-39705703D01*
X166907572Y-39742154D01*
X166907738Y-39742643D01*
X166905777Y-39743308D01*
X166905515Y-39743477D01*
X166904161Y-39743856D01*
X166903901Y-39743945D01*
X166679794Y-39836773D01*
X166679785Y-39836777D01*
X166469706Y-39958067D01*
X166277263Y-40105733D01*
X166277256Y-40105739D01*
X166105739Y-40277256D01*
X166105733Y-40277263D01*
X165958067Y-40469706D01*
X165836777Y-40679785D01*
X165836773Y-40679794D01*
X165743947Y-40903895D01*
X165681161Y-41138214D01*
X165649500Y-41378711D01*
X165649500Y-41621288D01*
X165681161Y-41861785D01*
X165743947Y-42096104D01*
X165827583Y-42298019D01*
X165836776Y-42320212D01*
X165958064Y-42530289D01*
X165958066Y-42530292D01*
X165958067Y-42530293D01*
X166105733Y-42722736D01*
X166105739Y-42722743D01*
X166277256Y-42894260D01*
X166277262Y-42894265D01*
X166469711Y-43041936D01*
X166679788Y-43163224D01*
X166903900Y-43256054D01*
X167138211Y-43318838D01*
X167318586Y-43342584D01*
X167378711Y-43350500D01*
X167378712Y-43350500D01*
X167621289Y-43350500D01*
X167669388Y-43344167D01*
X167861789Y-43318838D01*
X168096100Y-43256054D01*
X168320212Y-43163224D01*
X168530289Y-43041936D01*
X168722738Y-42894265D01*
X168894265Y-42722738D01*
X169041936Y-42530289D01*
X169163224Y-42320212D01*
X169256054Y-42096100D01*
X169256056Y-42096090D01*
X169257357Y-42092262D01*
X169258564Y-42092671D01*
X169292086Y-42037670D01*
X169354932Y-42007138D01*
X169424308Y-42015430D01*
X169478188Y-42059913D01*
X169499465Y-42126464D01*
X169499500Y-42129420D01*
X169499500Y-85870579D01*
X169479815Y-85937618D01*
X169427011Y-85983373D01*
X169357853Y-85993317D01*
X169294297Y-85964292D01*
X169257845Y-85907572D01*
X169257357Y-85907738D01*
X169256690Y-85905775D01*
X169256523Y-85905514D01*
X169256143Y-85904163D01*
X169256054Y-85903901D01*
X169256052Y-85903895D01*
X169163224Y-85679788D01*
X169041936Y-85469711D01*
X168894265Y-85277262D01*
X168894260Y-85277256D01*
X168722743Y-85105739D01*
X168722736Y-85105733D01*
X168530293Y-84958067D01*
X168530292Y-84958066D01*
X168530289Y-84958064D01*
X168320212Y-84836776D01*
X168320205Y-84836773D01*
X168096104Y-84743947D01*
X167861785Y-84681161D01*
X167621289Y-84649500D01*
X167621288Y-84649500D01*
X167378712Y-84649500D01*
X167378711Y-84649500D01*
X167138214Y-84681161D01*
X166903895Y-84743947D01*
X166679794Y-84836773D01*
X166679785Y-84836777D01*
X166469706Y-84958067D01*
X166277263Y-85105733D01*
X166277256Y-85105739D01*
X166105739Y-85277256D01*
X166105733Y-85277263D01*
X165958067Y-85469706D01*
X165836777Y-85679785D01*
X165836773Y-85679794D01*
X165743947Y-85903895D01*
X165681161Y-86138214D01*
X165649500Y-86378711D01*
X165649500Y-86621288D01*
X165681161Y-86861785D01*
X165743947Y-87096104D01*
X165836773Y-87320205D01*
X165836776Y-87320212D01*
X165958064Y-87530289D01*
X165958066Y-87530292D01*
X165958067Y-87530293D01*
X166105733Y-87722736D01*
X166105739Y-87722743D01*
X166277256Y-87894260D01*
X166277262Y-87894265D01*
X166469711Y-88041936D01*
X166679788Y-88163224D01*
X166903900Y-88256054D01*
X166903904Y-88256055D01*
X166907738Y-88257357D01*
X166907328Y-88258564D01*
X166962330Y-88292086D01*
X166992862Y-88354932D01*
X166984570Y-88424308D01*
X166940087Y-88478188D01*
X166873536Y-88499465D01*
X166870580Y-88499500D01*
X103129420Y-88499500D01*
X103062381Y-88479815D01*
X103016626Y-88427011D01*
X103006682Y-88357853D01*
X103035707Y-88294297D01*
X103092427Y-88257845D01*
X103092262Y-88257357D01*
X103094222Y-88256691D01*
X103094485Y-88256523D01*
X103095838Y-88256143D01*
X103096090Y-88256056D01*
X103096100Y-88256054D01*
X103320212Y-88163224D01*
X103530289Y-88041936D01*
X103722738Y-87894265D01*
X103894265Y-87722738D01*
X104041936Y-87530289D01*
X104163224Y-87320212D01*
X104256054Y-87096100D01*
X104318838Y-86861789D01*
X104350500Y-86621288D01*
X104350500Y-86378712D01*
X104318838Y-86138211D01*
X104256054Y-85903900D01*
X104163224Y-85679788D01*
X104041936Y-85469711D01*
X103894265Y-85277262D01*
X103894260Y-85277256D01*
X103722743Y-85105739D01*
X103722736Y-85105733D01*
X103530293Y-84958067D01*
X103530292Y-84958066D01*
X103530289Y-84958064D01*
X103320212Y-84836776D01*
X103320205Y-84836773D01*
X103096104Y-84743947D01*
X102861785Y-84681161D01*
X102621289Y-84649500D01*
X102621288Y-84649500D01*
X102378712Y-84649500D01*
X102378711Y-84649500D01*
X102138214Y-84681161D01*
X101903895Y-84743947D01*
X101679794Y-84836773D01*
X101679785Y-84836777D01*
X101469706Y-84958067D01*
X101277263Y-85105733D01*
X101277256Y-85105739D01*
X101105739Y-85277256D01*
X101105733Y-85277263D01*
X100958067Y-85469706D01*
X100836777Y-85679785D01*
X100836773Y-85679794D01*
X100743945Y-85903901D01*
X100742643Y-85907738D01*
X100741438Y-85907329D01*
X100707905Y-85962337D01*
X100645057Y-85992863D01*
X100575682Y-85984565D01*
X100521806Y-85940077D01*
X100500535Y-85873524D01*
X100500500Y-85870579D01*
X100500500Y-77870297D01*
X133570000Y-77870297D01*
X133570000Y-78490000D01*
X134186988Y-78490000D01*
X134154075Y-78547007D01*
X134120000Y-78674174D01*
X134120000Y-78805826D01*
X134154075Y-78932993D01*
X134186988Y-78990000D01*
X133570000Y-78990000D01*
X133570000Y-79609702D01*
X133581602Y-79668033D01*
X133581603Y-79668034D01*
X133625808Y-79734191D01*
X133691965Y-79778396D01*
X133691966Y-79778397D01*
X133750297Y-79789999D01*
X133750301Y-79790000D01*
X134370000Y-79790000D01*
X134370000Y-79173012D01*
X134427007Y-79205925D01*
X134554174Y-79240000D01*
X134685826Y-79240000D01*
X134812993Y-79205925D01*
X134870000Y-79173012D01*
X134870000Y-79790000D01*
X135489699Y-79790000D01*
X135489702Y-79789999D01*
X135548033Y-79778397D01*
X135548034Y-79778396D01*
X135614191Y-79734191D01*
X135658396Y-79668034D01*
X135658397Y-79668033D01*
X135669999Y-79609702D01*
X135670000Y-79609699D01*
X135670000Y-78990000D01*
X135053012Y-78990000D01*
X135085925Y-78932993D01*
X135120000Y-78805826D01*
X135120000Y-78740000D01*
X143724417Y-78740000D01*
X143744699Y-78945932D01*
X143744700Y-78945934D01*
X143804768Y-79143954D01*
X143902315Y-79326450D01*
X143902317Y-79326452D01*
X144033589Y-79486410D01*
X144130209Y-79565702D01*
X144193550Y-79617685D01*
X144376046Y-79715232D01*
X144574066Y-79775300D01*
X144574065Y-79775300D01*
X144592529Y-79777118D01*
X144780000Y-79795583D01*
X144985934Y-79775300D01*
X145183954Y-79715232D01*
X145366450Y-79617685D01*
X145526410Y-79486410D01*
X145657685Y-79326450D01*
X145755232Y-79143954D01*
X145815300Y-78945934D01*
X145835583Y-78740000D01*
X146264417Y-78740000D01*
X146284699Y-78945932D01*
X146284700Y-78945934D01*
X146344768Y-79143954D01*
X146442315Y-79326450D01*
X146442317Y-79326452D01*
X146573589Y-79486410D01*
X146670209Y-79565702D01*
X146733550Y-79617685D01*
X146916046Y-79715232D01*
X147114066Y-79775300D01*
X147114065Y-79775300D01*
X147132529Y-79777118D01*
X147320000Y-79795583D01*
X147525934Y-79775300D01*
X147723954Y-79715232D01*
X147906450Y-79617685D01*
X148066410Y-79486410D01*
X148197685Y-79326450D01*
X148295232Y-79143954D01*
X148355300Y-78945934D01*
X148375583Y-78740000D01*
X148804417Y-78740000D01*
X148824699Y-78945932D01*
X148824700Y-78945934D01*
X148884768Y-79143954D01*
X148982315Y-79326450D01*
X148982317Y-79326452D01*
X149113589Y-79486410D01*
X149210209Y-79565702D01*
X149273550Y-79617685D01*
X149456046Y-79715232D01*
X149654066Y-79775300D01*
X149654065Y-79775300D01*
X149672529Y-79777118D01*
X149860000Y-79795583D01*
X150065934Y-79775300D01*
X150263954Y-79715232D01*
X150446450Y-79617685D01*
X150606410Y-79486410D01*
X150737685Y-79326450D01*
X150835232Y-79143954D01*
X150895300Y-78945934D01*
X150915583Y-78740000D01*
X151344417Y-78740000D01*
X151364699Y-78945932D01*
X151364700Y-78945934D01*
X151424768Y-79143954D01*
X151522315Y-79326450D01*
X151522317Y-79326452D01*
X151653589Y-79486410D01*
X151750209Y-79565702D01*
X151813550Y-79617685D01*
X151996046Y-79715232D01*
X152194066Y-79775300D01*
X152194065Y-79775300D01*
X152212529Y-79777118D01*
X152400000Y-79795583D01*
X152605934Y-79775300D01*
X152803954Y-79715232D01*
X152986450Y-79617685D01*
X153146410Y-79486410D01*
X153277685Y-79326450D01*
X153375232Y-79143954D01*
X153435300Y-78945934D01*
X153455583Y-78740000D01*
X153884417Y-78740000D01*
X153904699Y-78945932D01*
X153904700Y-78945934D01*
X153964768Y-79143954D01*
X154062315Y-79326450D01*
X154062317Y-79326452D01*
X154193589Y-79486410D01*
X154290209Y-79565702D01*
X154353550Y-79617685D01*
X154536046Y-79715232D01*
X154734066Y-79775300D01*
X154734065Y-79775300D01*
X154752529Y-79777118D01*
X154940000Y-79795583D01*
X155145934Y-79775300D01*
X155343954Y-79715232D01*
X155526450Y-79617685D01*
X155686410Y-79486410D01*
X155817685Y-79326450D01*
X155915232Y-79143954D01*
X155975300Y-78945934D01*
X155995583Y-78740000D01*
X155975300Y-78534066D01*
X155915232Y-78336046D01*
X155817685Y-78153550D01*
X155765702Y-78090209D01*
X155686410Y-77993589D01*
X155536121Y-77870252D01*
X155536115Y-77870247D01*
X156429500Y-77870247D01*
X156429500Y-79609752D01*
X156441131Y-79668229D01*
X156441132Y-79668230D01*
X156485447Y-79734552D01*
X156551769Y-79778867D01*
X156551770Y-79778868D01*
X156610247Y-79790499D01*
X156610250Y-79790500D01*
X156610252Y-79790500D01*
X158349750Y-79790500D01*
X158349751Y-79790499D01*
X158364568Y-79787552D01*
X158408229Y-79778868D01*
X158408229Y-79778867D01*
X158408231Y-79778867D01*
X158474552Y-79734552D01*
X158518867Y-79668231D01*
X158518867Y-79668229D01*
X158518868Y-79668229D01*
X158530499Y-79609752D01*
X158530500Y-79609750D01*
X158530500Y-77870249D01*
X158530499Y-77870247D01*
X158518868Y-77811770D01*
X158518867Y-77811769D01*
X158474552Y-77745447D01*
X158408230Y-77701132D01*
X158408229Y-77701131D01*
X158349752Y-77689500D01*
X158349748Y-77689500D01*
X156610252Y-77689500D01*
X156610247Y-77689500D01*
X156551770Y-77701131D01*
X156551769Y-77701132D01*
X156485447Y-77745447D01*
X156441132Y-77811769D01*
X156441131Y-77811770D01*
X156429500Y-77870247D01*
X155536115Y-77870247D01*
X155526450Y-77862315D01*
X155343954Y-77764768D01*
X155145934Y-77704700D01*
X155145932Y-77704699D01*
X155145934Y-77704699D01*
X154940000Y-77684417D01*
X154734067Y-77704699D01*
X154536043Y-77764769D01*
X154425898Y-77823643D01*
X154353550Y-77862315D01*
X154353548Y-77862316D01*
X154353547Y-77862317D01*
X154193589Y-77993589D01*
X154062317Y-78153547D01*
X153964769Y-78336043D01*
X153904699Y-78534067D01*
X153884417Y-78740000D01*
X153455583Y-78740000D01*
X153435300Y-78534066D01*
X153375232Y-78336046D01*
X153277685Y-78153550D01*
X153225702Y-78090209D01*
X153146410Y-77993589D01*
X152996121Y-77870252D01*
X152986450Y-77862315D01*
X152803954Y-77764768D01*
X152605934Y-77704700D01*
X152605932Y-77704699D01*
X152605934Y-77704699D01*
X152400000Y-77684417D01*
X152194067Y-77704699D01*
X151996043Y-77764769D01*
X151885898Y-77823643D01*
X151813550Y-77862315D01*
X151813548Y-77862316D01*
X151813547Y-77862317D01*
X151653589Y-77993589D01*
X151522317Y-78153547D01*
X151424769Y-78336043D01*
X151364699Y-78534067D01*
X151344417Y-78740000D01*
X150915583Y-78740000D01*
X150895300Y-78534066D01*
X150835232Y-78336046D01*
X150737685Y-78153550D01*
X150685702Y-78090209D01*
X150606410Y-77993589D01*
X150456121Y-77870252D01*
X150446450Y-77862315D01*
X150263954Y-77764768D01*
X150065934Y-77704700D01*
X150065932Y-77704699D01*
X150065934Y-77704699D01*
X149860000Y-77684417D01*
X149654067Y-77704699D01*
X149456043Y-77764769D01*
X149345898Y-77823643D01*
X149273550Y-77862315D01*
X149273548Y-77862316D01*
X149273547Y-77862317D01*
X149113589Y-77993589D01*
X148982317Y-78153547D01*
X148884769Y-78336043D01*
X148824699Y-78534067D01*
X148804417Y-78740000D01*
X148375583Y-78740000D01*
X148355300Y-78534066D01*
X148295232Y-78336046D01*
X148197685Y-78153550D01*
X148145702Y-78090209D01*
X148066410Y-77993589D01*
X147916121Y-77870252D01*
X147906450Y-77862315D01*
X147723954Y-77764768D01*
X147525934Y-77704700D01*
X147525932Y-77704699D01*
X147525934Y-77704699D01*
X147320000Y-77684417D01*
X147114067Y-77704699D01*
X146916043Y-77764769D01*
X146805898Y-77823643D01*
X146733550Y-77862315D01*
X146733548Y-77862316D01*
X146733547Y-77862317D01*
X146573589Y-77993589D01*
X146442317Y-78153547D01*
X146344769Y-78336043D01*
X146284699Y-78534067D01*
X146264417Y-78740000D01*
X145835583Y-78740000D01*
X145815300Y-78534066D01*
X145755232Y-78336046D01*
X145657685Y-78153550D01*
X145605702Y-78090209D01*
X145526410Y-77993589D01*
X145376121Y-77870252D01*
X145366450Y-77862315D01*
X145183954Y-77764768D01*
X144985934Y-77704700D01*
X144985932Y-77704699D01*
X144985934Y-77704699D01*
X144780000Y-77684417D01*
X144574067Y-77704699D01*
X144376043Y-77764769D01*
X144265898Y-77823643D01*
X144193550Y-77862315D01*
X144193548Y-77862316D01*
X144193547Y-77862317D01*
X144033589Y-77993589D01*
X143902317Y-78153547D01*
X143804769Y-78336043D01*
X143744699Y-78534067D01*
X143724417Y-78740000D01*
X135120000Y-78740000D01*
X135120000Y-78674174D01*
X135085925Y-78547007D01*
X135053012Y-78490000D01*
X135670000Y-78490000D01*
X135670000Y-77870301D01*
X135669999Y-77870297D01*
X135658397Y-77811966D01*
X135658396Y-77811965D01*
X135614191Y-77745808D01*
X135548034Y-77701603D01*
X135548033Y-77701602D01*
X135489702Y-77690000D01*
X134870000Y-77690000D01*
X134870000Y-78306988D01*
X134812993Y-78274075D01*
X134685826Y-78240000D01*
X134554174Y-78240000D01*
X134427007Y-78274075D01*
X134370000Y-78306988D01*
X134370000Y-77690000D01*
X133750297Y-77690000D01*
X133691966Y-77701602D01*
X133691965Y-77701603D01*
X133625808Y-77745808D01*
X133581603Y-77811965D01*
X133581602Y-77811966D01*
X133570000Y-77870297D01*
X100500500Y-77870297D01*
X100500500Y-76200000D01*
X133564417Y-76200000D01*
X133584699Y-76405932D01*
X133584700Y-76405934D01*
X133644768Y-76603954D01*
X133742315Y-76786450D01*
X133742317Y-76786452D01*
X133873589Y-76946410D01*
X133970209Y-77025702D01*
X134033550Y-77077685D01*
X134216046Y-77175232D01*
X134414066Y-77235300D01*
X134414065Y-77235300D01*
X134432529Y-77237118D01*
X134620000Y-77255583D01*
X134825934Y-77235300D01*
X135023954Y-77175232D01*
X135206450Y-77077685D01*
X135366410Y-76946410D01*
X135497685Y-76786450D01*
X135595232Y-76603954D01*
X135655300Y-76405934D01*
X135675583Y-76200000D01*
X143724417Y-76200000D01*
X143744699Y-76405932D01*
X143744700Y-76405934D01*
X143804768Y-76603954D01*
X143902315Y-76786450D01*
X143902317Y-76786452D01*
X144033589Y-76946410D01*
X144130209Y-77025702D01*
X144193550Y-77077685D01*
X144376046Y-77175232D01*
X144574066Y-77235300D01*
X144574065Y-77235300D01*
X144592529Y-77237118D01*
X144780000Y-77255583D01*
X144985934Y-77235300D01*
X145183954Y-77175232D01*
X145366450Y-77077685D01*
X145526410Y-76946410D01*
X145657685Y-76786450D01*
X145755232Y-76603954D01*
X145815300Y-76405934D01*
X145835583Y-76200000D01*
X146264417Y-76200000D01*
X146284699Y-76405932D01*
X146284700Y-76405934D01*
X146344768Y-76603954D01*
X146442315Y-76786450D01*
X146442317Y-76786452D01*
X146573589Y-76946410D01*
X146670209Y-77025702D01*
X146733550Y-77077685D01*
X146916046Y-77175232D01*
X147114066Y-77235300D01*
X147114065Y-77235300D01*
X147132529Y-77237118D01*
X147320000Y-77255583D01*
X147525934Y-77235300D01*
X147723954Y-77175232D01*
X147906450Y-77077685D01*
X148066410Y-76946410D01*
X148197685Y-76786450D01*
X148295232Y-76603954D01*
X148355300Y-76405934D01*
X148375583Y-76200000D01*
X148804417Y-76200000D01*
X148824699Y-76405932D01*
X148824700Y-76405934D01*
X148884768Y-76603954D01*
X148982315Y-76786450D01*
X148982317Y-76786452D01*
X149113589Y-76946410D01*
X149210209Y-77025702D01*
X149273550Y-77077685D01*
X149456046Y-77175232D01*
X149654066Y-77235300D01*
X149654065Y-77235300D01*
X149672529Y-77237118D01*
X149860000Y-77255583D01*
X150065934Y-77235300D01*
X150263954Y-77175232D01*
X150446450Y-77077685D01*
X150606410Y-76946410D01*
X150737685Y-76786450D01*
X150835232Y-76603954D01*
X150895300Y-76405934D01*
X150915583Y-76200000D01*
X151344417Y-76200000D01*
X151364699Y-76405932D01*
X151364700Y-76405934D01*
X151424768Y-76603954D01*
X151522315Y-76786450D01*
X151522317Y-76786452D01*
X151653589Y-76946410D01*
X151750209Y-77025702D01*
X151813550Y-77077685D01*
X151996046Y-77175232D01*
X152194066Y-77235300D01*
X152194065Y-77235300D01*
X152212529Y-77237118D01*
X152400000Y-77255583D01*
X152605934Y-77235300D01*
X152803954Y-77175232D01*
X152986450Y-77077685D01*
X153146410Y-76946410D01*
X153277685Y-76786450D01*
X153375232Y-76603954D01*
X153435300Y-76405934D01*
X153455583Y-76200000D01*
X153884417Y-76200000D01*
X153904699Y-76405932D01*
X153904700Y-76405934D01*
X153964768Y-76603954D01*
X154062315Y-76786450D01*
X154062317Y-76786452D01*
X154193589Y-76946410D01*
X154290209Y-77025702D01*
X154353550Y-77077685D01*
X154536046Y-77175232D01*
X154734066Y-77235300D01*
X154734065Y-77235300D01*
X154752529Y-77237118D01*
X154940000Y-77255583D01*
X155145934Y-77235300D01*
X155343954Y-77175232D01*
X155526450Y-77077685D01*
X155686410Y-76946410D01*
X155817685Y-76786450D01*
X155915232Y-76603954D01*
X155975300Y-76405934D01*
X155995583Y-76200000D01*
X156424417Y-76200000D01*
X156444699Y-76405932D01*
X156444700Y-76405934D01*
X156504768Y-76603954D01*
X156602315Y-76786450D01*
X156602317Y-76786452D01*
X156733589Y-76946410D01*
X156830209Y-77025702D01*
X156893550Y-77077685D01*
X157076046Y-77175232D01*
X157274066Y-77235300D01*
X157274065Y-77235300D01*
X157292529Y-77237118D01*
X157480000Y-77255583D01*
X157685934Y-77235300D01*
X157883954Y-77175232D01*
X158066450Y-77077685D01*
X158226410Y-76946410D01*
X158357685Y-76786450D01*
X158455232Y-76603954D01*
X158515300Y-76405934D01*
X158535583Y-76200000D01*
X158515300Y-75994066D01*
X158455232Y-75796046D01*
X158357685Y-75613550D01*
X158305702Y-75550209D01*
X158226410Y-75453589D01*
X158066452Y-75322317D01*
X158066453Y-75322317D01*
X158066450Y-75322315D01*
X157883954Y-75224768D01*
X157685934Y-75164700D01*
X157685932Y-75164699D01*
X157685934Y-75164699D01*
X157480000Y-75144417D01*
X157274067Y-75164699D01*
X157076043Y-75224769D01*
X156965898Y-75283643D01*
X156893550Y-75322315D01*
X156893548Y-75322316D01*
X156893547Y-75322317D01*
X156733589Y-75453589D01*
X156602317Y-75613547D01*
X156504769Y-75796043D01*
X156444699Y-75994067D01*
X156424417Y-76200000D01*
X155995583Y-76200000D01*
X155975300Y-75994066D01*
X155915232Y-75796046D01*
X155817685Y-75613550D01*
X155765702Y-75550209D01*
X155686410Y-75453589D01*
X155526452Y-75322317D01*
X155526453Y-75322317D01*
X155526450Y-75322315D01*
X155343954Y-75224768D01*
X155145934Y-75164700D01*
X155145932Y-75164699D01*
X155145934Y-75164699D01*
X154940000Y-75144417D01*
X154734067Y-75164699D01*
X154536043Y-75224769D01*
X154425898Y-75283643D01*
X154353550Y-75322315D01*
X154353548Y-75322316D01*
X154353547Y-75322317D01*
X154193589Y-75453589D01*
X154062317Y-75613547D01*
X153964769Y-75796043D01*
X153904699Y-75994067D01*
X153884417Y-76200000D01*
X153455583Y-76200000D01*
X153435300Y-75994066D01*
X153375232Y-75796046D01*
X153277685Y-75613550D01*
X153225702Y-75550209D01*
X153146410Y-75453589D01*
X152986452Y-75322317D01*
X152986453Y-75322317D01*
X152986450Y-75322315D01*
X152803954Y-75224768D01*
X152605934Y-75164700D01*
X152605932Y-75164699D01*
X152605934Y-75164699D01*
X152400000Y-75144417D01*
X152194067Y-75164699D01*
X151996043Y-75224769D01*
X151885898Y-75283643D01*
X151813550Y-75322315D01*
X151813548Y-75322316D01*
X151813547Y-75322317D01*
X151653589Y-75453589D01*
X151522317Y-75613547D01*
X151424769Y-75796043D01*
X151364699Y-75994067D01*
X151344417Y-76200000D01*
X150915583Y-76200000D01*
X150895300Y-75994066D01*
X150835232Y-75796046D01*
X150737685Y-75613550D01*
X150685702Y-75550209D01*
X150606410Y-75453589D01*
X150446452Y-75322317D01*
X150446453Y-75322317D01*
X150446450Y-75322315D01*
X150263954Y-75224768D01*
X150065934Y-75164700D01*
X150065932Y-75164699D01*
X150065934Y-75164699D01*
X149860000Y-75144417D01*
X149654067Y-75164699D01*
X149456043Y-75224769D01*
X149345898Y-75283643D01*
X149273550Y-75322315D01*
X149273548Y-75322316D01*
X149273547Y-75322317D01*
X149113589Y-75453589D01*
X148982317Y-75613547D01*
X148884769Y-75796043D01*
X148824699Y-75994067D01*
X148804417Y-76200000D01*
X148375583Y-76200000D01*
X148355300Y-75994066D01*
X148295232Y-75796046D01*
X148197685Y-75613550D01*
X148145702Y-75550209D01*
X148066410Y-75453589D01*
X147906452Y-75322317D01*
X147906453Y-75322317D01*
X147906450Y-75322315D01*
X147723954Y-75224768D01*
X147525934Y-75164700D01*
X147525932Y-75164699D01*
X147525934Y-75164699D01*
X147320000Y-75144417D01*
X147114067Y-75164699D01*
X146916043Y-75224769D01*
X146805898Y-75283643D01*
X146733550Y-75322315D01*
X146733548Y-75322316D01*
X146733547Y-75322317D01*
X146573589Y-75453589D01*
X146442317Y-75613547D01*
X146344769Y-75796043D01*
X146284699Y-75994067D01*
X146264417Y-76200000D01*
X145835583Y-76200000D01*
X145815300Y-75994066D01*
X145755232Y-75796046D01*
X145657685Y-75613550D01*
X145605702Y-75550209D01*
X145526410Y-75453589D01*
X145366452Y-75322317D01*
X145366453Y-75322317D01*
X145366450Y-75322315D01*
X145183954Y-75224768D01*
X144985934Y-75164700D01*
X144985932Y-75164699D01*
X144985934Y-75164699D01*
X144780000Y-75144417D01*
X144574067Y-75164699D01*
X144376043Y-75224769D01*
X144265898Y-75283643D01*
X144193550Y-75322315D01*
X144193548Y-75322316D01*
X144193547Y-75322317D01*
X144033589Y-75453589D01*
X143902317Y-75613547D01*
X143804769Y-75796043D01*
X143744699Y-75994067D01*
X143724417Y-76200000D01*
X135675583Y-76200000D01*
X135655300Y-75994066D01*
X135595232Y-75796046D01*
X135497685Y-75613550D01*
X135445702Y-75550209D01*
X135366410Y-75453589D01*
X135206452Y-75322317D01*
X135206453Y-75322317D01*
X135206450Y-75322315D01*
X135023954Y-75224768D01*
X134825934Y-75164700D01*
X134825932Y-75164699D01*
X134825934Y-75164699D01*
X134620000Y-75144417D01*
X134414067Y-75164699D01*
X134216043Y-75224769D01*
X134105898Y-75283643D01*
X134033550Y-75322315D01*
X134033548Y-75322316D01*
X134033547Y-75322317D01*
X133873589Y-75453589D01*
X133742317Y-75613547D01*
X133644769Y-75796043D01*
X133584699Y-75994067D01*
X133564417Y-76200000D01*
X100500500Y-76200000D01*
X100500500Y-73660000D01*
X105624417Y-73660000D01*
X105644699Y-73865932D01*
X105644700Y-73865934D01*
X105704768Y-74063954D01*
X105802315Y-74246450D01*
X105802317Y-74246452D01*
X105933589Y-74406410D01*
X106022953Y-74479748D01*
X106093550Y-74537685D01*
X106276046Y-74635232D01*
X106474066Y-74695300D01*
X106474065Y-74695300D01*
X106492529Y-74697118D01*
X106680000Y-74715583D01*
X106885934Y-74695300D01*
X107083954Y-74635232D01*
X107266450Y-74537685D01*
X107426410Y-74406410D01*
X107557685Y-74246450D01*
X107655232Y-74063954D01*
X107715300Y-73865934D01*
X107735583Y-73660000D01*
X108164417Y-73660000D01*
X108184699Y-73865932D01*
X108184700Y-73865934D01*
X108244768Y-74063954D01*
X108342315Y-74246450D01*
X108342317Y-74246452D01*
X108473589Y-74406410D01*
X108562953Y-74479748D01*
X108633550Y-74537685D01*
X108816046Y-74635232D01*
X109014066Y-74695300D01*
X109014065Y-74695300D01*
X109032529Y-74697118D01*
X109220000Y-74715583D01*
X109425934Y-74695300D01*
X109623954Y-74635232D01*
X109806450Y-74537685D01*
X109966410Y-74406410D01*
X110097685Y-74246450D01*
X110195232Y-74063954D01*
X110255300Y-73865934D01*
X110275583Y-73660000D01*
X115834659Y-73660000D01*
X115853975Y-73856129D01*
X115911188Y-74044733D01*
X116004086Y-74218532D01*
X116004090Y-74218539D01*
X116129116Y-74370883D01*
X116281460Y-74495909D01*
X116281467Y-74495913D01*
X116455266Y-74588811D01*
X116455269Y-74588811D01*
X116455273Y-74588814D01*
X116643868Y-74646024D01*
X116840000Y-74665341D01*
X117036132Y-74646024D01*
X117224727Y-74588814D01*
X117398538Y-74495910D01*
X117550883Y-74370883D01*
X117675910Y-74218538D01*
X117768814Y-74044727D01*
X117826024Y-73856132D01*
X117845341Y-73660000D01*
X117826024Y-73463868D01*
X117768814Y-73275273D01*
X117768811Y-73275269D01*
X117768811Y-73275266D01*
X117675913Y-73101467D01*
X117675909Y-73101460D01*
X117550883Y-72949116D01*
X117418226Y-72840247D01*
X123459500Y-72840247D01*
X123459500Y-74479752D01*
X123471131Y-74538229D01*
X123471132Y-74538230D01*
X123515447Y-74604552D01*
X123581769Y-74648867D01*
X123581770Y-74648868D01*
X123640247Y-74660499D01*
X123640250Y-74660500D01*
X123640252Y-74660500D01*
X125279750Y-74660500D01*
X125279751Y-74660499D01*
X125294568Y-74657552D01*
X125338229Y-74648868D01*
X125338229Y-74648867D01*
X125338231Y-74648867D01*
X125404552Y-74604552D01*
X125448867Y-74538231D01*
X125448867Y-74538229D01*
X125448868Y-74538229D01*
X125460499Y-74479752D01*
X125460500Y-74479750D01*
X125460500Y-73660000D01*
X133564417Y-73660000D01*
X133584699Y-73865932D01*
X133584700Y-73865934D01*
X133644768Y-74063954D01*
X133742315Y-74246450D01*
X133742317Y-74246452D01*
X133873589Y-74406410D01*
X133962953Y-74479748D01*
X134033550Y-74537685D01*
X134216046Y-74635232D01*
X134414066Y-74695300D01*
X134414065Y-74695300D01*
X134432529Y-74697118D01*
X134620000Y-74715583D01*
X134825934Y-74695300D01*
X135023954Y-74635232D01*
X135206450Y-74537685D01*
X135366410Y-74406410D01*
X135497685Y-74246450D01*
X135595232Y-74063954D01*
X135655300Y-73865934D01*
X135675583Y-73660000D01*
X135655300Y-73454066D01*
X135595232Y-73256046D01*
X135497685Y-73073550D01*
X135445702Y-73010209D01*
X135366410Y-72913589D01*
X135206452Y-72782317D01*
X135206453Y-72782317D01*
X135206450Y-72782315D01*
X135023954Y-72684768D01*
X134825934Y-72624700D01*
X134825932Y-72624699D01*
X134825934Y-72624699D01*
X134620000Y-72604417D01*
X134414067Y-72624699D01*
X134216043Y-72684769D01*
X134158650Y-72715447D01*
X134033550Y-72782315D01*
X134033548Y-72782316D01*
X134033547Y-72782317D01*
X133873589Y-72913589D01*
X133742317Y-73073547D01*
X133644769Y-73256043D01*
X133584699Y-73454067D01*
X133564417Y-73660000D01*
X125460500Y-73660000D01*
X125460500Y-72840249D01*
X125460499Y-72840247D01*
X125448868Y-72781770D01*
X125448867Y-72781769D01*
X125404552Y-72715447D01*
X125338230Y-72671132D01*
X125338229Y-72671131D01*
X125279752Y-72659500D01*
X125279748Y-72659500D01*
X123640252Y-72659500D01*
X123640247Y-72659500D01*
X123581770Y-72671131D01*
X123581769Y-72671132D01*
X123515447Y-72715447D01*
X123471132Y-72781769D01*
X123471131Y-72781770D01*
X123459500Y-72840247D01*
X117418226Y-72840247D01*
X117398539Y-72824090D01*
X117398532Y-72824086D01*
X117224733Y-72731188D01*
X117224727Y-72731186D01*
X117036132Y-72673976D01*
X117036129Y-72673975D01*
X116840000Y-72654659D01*
X116643870Y-72673975D01*
X116455266Y-72731188D01*
X116281467Y-72824086D01*
X116281460Y-72824090D01*
X116129116Y-72949116D01*
X116004090Y-73101460D01*
X116004086Y-73101467D01*
X115911188Y-73275266D01*
X115853975Y-73463870D01*
X115834659Y-73660000D01*
X110275583Y-73660000D01*
X110255300Y-73454066D01*
X110195232Y-73256046D01*
X110097685Y-73073550D01*
X110045702Y-73010209D01*
X109966410Y-72913589D01*
X109806452Y-72782317D01*
X109806453Y-72782317D01*
X109806450Y-72782315D01*
X109623954Y-72684768D01*
X109425934Y-72624700D01*
X109425932Y-72624699D01*
X109425934Y-72624699D01*
X109220000Y-72604417D01*
X109014067Y-72624699D01*
X108816043Y-72684769D01*
X108758650Y-72715447D01*
X108633550Y-72782315D01*
X108633548Y-72782316D01*
X108633547Y-72782317D01*
X108473589Y-72913589D01*
X108342317Y-73073547D01*
X108244769Y-73256043D01*
X108184699Y-73454067D01*
X108164417Y-73660000D01*
X107735583Y-73660000D01*
X107715300Y-73454066D01*
X107655232Y-73256046D01*
X107557685Y-73073550D01*
X107505702Y-73010209D01*
X107426410Y-72913589D01*
X107266452Y-72782317D01*
X107266453Y-72782317D01*
X107266450Y-72782315D01*
X107083954Y-72684768D01*
X106885934Y-72624700D01*
X106885932Y-72624699D01*
X106885934Y-72624699D01*
X106680000Y-72604417D01*
X106474067Y-72624699D01*
X106276043Y-72684769D01*
X106218650Y-72715447D01*
X106093550Y-72782315D01*
X106093548Y-72782316D01*
X106093547Y-72782317D01*
X105933589Y-72913589D01*
X105802317Y-73073547D01*
X105704769Y-73256043D01*
X105644699Y-73454067D01*
X105624417Y-73660000D01*
X100500500Y-73660000D01*
X100500500Y-71120000D01*
X105624417Y-71120000D01*
X105644699Y-71325932D01*
X105644700Y-71325934D01*
X105704768Y-71523954D01*
X105802315Y-71706450D01*
X105802317Y-71706452D01*
X105933589Y-71866410D01*
X106030209Y-71945702D01*
X106093550Y-71997685D01*
X106276046Y-72095232D01*
X106474066Y-72155300D01*
X106474065Y-72155300D01*
X106492529Y-72157118D01*
X106680000Y-72175583D01*
X106885934Y-72155300D01*
X107083954Y-72095232D01*
X107266450Y-71997685D01*
X107426410Y-71866410D01*
X107557685Y-71706450D01*
X107655232Y-71523954D01*
X107715300Y-71325934D01*
X107735583Y-71120000D01*
X108164417Y-71120000D01*
X108184699Y-71325932D01*
X108184700Y-71325934D01*
X108244768Y-71523954D01*
X108342315Y-71706450D01*
X108342317Y-71706452D01*
X108473589Y-71866410D01*
X108570209Y-71945702D01*
X108633550Y-71997685D01*
X108816046Y-72095232D01*
X109014066Y-72155300D01*
X109014065Y-72155300D01*
X109032529Y-72157118D01*
X109220000Y-72175583D01*
X109425934Y-72155300D01*
X109623954Y-72095232D01*
X109806450Y-71997685D01*
X109966410Y-71866410D01*
X110097685Y-71706450D01*
X110195232Y-71523954D01*
X110255300Y-71325934D01*
X110275583Y-71120000D01*
X115834659Y-71120000D01*
X115853975Y-71316129D01*
X115911188Y-71504733D01*
X116004086Y-71678532D01*
X116004090Y-71678539D01*
X116129116Y-71830883D01*
X116281460Y-71955909D01*
X116281467Y-71955913D01*
X116455266Y-72048811D01*
X116455269Y-72048811D01*
X116455273Y-72048814D01*
X116643868Y-72106024D01*
X116840000Y-72125341D01*
X117036132Y-72106024D01*
X117224727Y-72048814D01*
X117398538Y-71955910D01*
X117550883Y-71830883D01*
X117675910Y-71678538D01*
X117768814Y-71504727D01*
X117826024Y-71316132D01*
X117845341Y-71120000D01*
X123454659Y-71120000D01*
X123473975Y-71316129D01*
X123531188Y-71504733D01*
X123624086Y-71678532D01*
X123624090Y-71678539D01*
X123749116Y-71830883D01*
X123901460Y-71955909D01*
X123901467Y-71955913D01*
X124075266Y-72048811D01*
X124075269Y-72048811D01*
X124075273Y-72048814D01*
X124263868Y-72106024D01*
X124460000Y-72125341D01*
X124656132Y-72106024D01*
X124844727Y-72048814D01*
X125018538Y-71955910D01*
X125170883Y-71830883D01*
X125295910Y-71678538D01*
X125388814Y-71504727D01*
X125446024Y-71316132D01*
X125465341Y-71120000D01*
X125446024Y-70923868D01*
X125388814Y-70735273D01*
X125388811Y-70735269D01*
X125388811Y-70735266D01*
X125295913Y-70561467D01*
X125295909Y-70561460D01*
X125170883Y-70409116D01*
X125018539Y-70284090D01*
X125018532Y-70284086D01*
X124844733Y-70191188D01*
X124844727Y-70191186D01*
X124656132Y-70133976D01*
X124656129Y-70133975D01*
X124460000Y-70114659D01*
X124263870Y-70133975D01*
X124075266Y-70191188D01*
X123901467Y-70284086D01*
X123901460Y-70284090D01*
X123749116Y-70409116D01*
X123624090Y-70561460D01*
X123624086Y-70561467D01*
X123531188Y-70735266D01*
X123473975Y-70923870D01*
X123454659Y-71120000D01*
X117845341Y-71120000D01*
X117826024Y-70923868D01*
X117768814Y-70735273D01*
X117768811Y-70735269D01*
X117768811Y-70735266D01*
X117675913Y-70561467D01*
X117675909Y-70561460D01*
X117550883Y-70409116D01*
X117398539Y-70284090D01*
X117398532Y-70284086D01*
X117224733Y-70191188D01*
X117224727Y-70191186D01*
X117036132Y-70133976D01*
X117036129Y-70133975D01*
X116840000Y-70114659D01*
X116643870Y-70133975D01*
X116455266Y-70191188D01*
X116281467Y-70284086D01*
X116281460Y-70284090D01*
X116129116Y-70409116D01*
X116004090Y-70561460D01*
X116004086Y-70561467D01*
X115911188Y-70735266D01*
X115853975Y-70923870D01*
X115834659Y-71120000D01*
X110275583Y-71120000D01*
X110255300Y-70914066D01*
X110195232Y-70716046D01*
X110097685Y-70533550D01*
X110045702Y-70470209D01*
X109966410Y-70373589D01*
X109806452Y-70242317D01*
X109806453Y-70242317D01*
X109806450Y-70242315D01*
X109623954Y-70144768D01*
X109425934Y-70084700D01*
X109425932Y-70084699D01*
X109425934Y-70084699D01*
X109220000Y-70064417D01*
X109014067Y-70084699D01*
X108816043Y-70144769D01*
X108729205Y-70191186D01*
X108633550Y-70242315D01*
X108633548Y-70242316D01*
X108633547Y-70242317D01*
X108473589Y-70373589D01*
X108342317Y-70533547D01*
X108244769Y-70716043D01*
X108184699Y-70914067D01*
X108164417Y-71120000D01*
X107735583Y-71120000D01*
X107715300Y-70914066D01*
X107655232Y-70716046D01*
X107557685Y-70533550D01*
X107505702Y-70470209D01*
X107426410Y-70373589D01*
X107266452Y-70242317D01*
X107266453Y-70242317D01*
X107266450Y-70242315D01*
X107083954Y-70144768D01*
X106885934Y-70084700D01*
X106885932Y-70084699D01*
X106885934Y-70084699D01*
X106680000Y-70064417D01*
X106474067Y-70084699D01*
X106276043Y-70144769D01*
X106189205Y-70191186D01*
X106093550Y-70242315D01*
X106093548Y-70242316D01*
X106093547Y-70242317D01*
X105933589Y-70373589D01*
X105802317Y-70533547D01*
X105704769Y-70716043D01*
X105644699Y-70914067D01*
X105624417Y-71120000D01*
X100500500Y-71120000D01*
X100500500Y-68580000D01*
X105624417Y-68580000D01*
X105644699Y-68785932D01*
X105644700Y-68785934D01*
X105704768Y-68983954D01*
X105802315Y-69166450D01*
X105802317Y-69166452D01*
X105933589Y-69326410D01*
X106030209Y-69405702D01*
X106093550Y-69457685D01*
X106276046Y-69555232D01*
X106474066Y-69615300D01*
X106474065Y-69615300D01*
X106492529Y-69617118D01*
X106680000Y-69635583D01*
X106885934Y-69615300D01*
X107083954Y-69555232D01*
X107266450Y-69457685D01*
X107426410Y-69326410D01*
X107557685Y-69166450D01*
X107655232Y-68983954D01*
X107715300Y-68785934D01*
X107735583Y-68580000D01*
X108164417Y-68580000D01*
X108184699Y-68785932D01*
X108184700Y-68785934D01*
X108244768Y-68983954D01*
X108342315Y-69166450D01*
X108342317Y-69166452D01*
X108473589Y-69326410D01*
X108570209Y-69405702D01*
X108633550Y-69457685D01*
X108816046Y-69555232D01*
X109014066Y-69615300D01*
X109014065Y-69615300D01*
X109032529Y-69617118D01*
X109220000Y-69635583D01*
X109425934Y-69615300D01*
X109623954Y-69555232D01*
X109806450Y-69457685D01*
X109966410Y-69326410D01*
X110097685Y-69166450D01*
X110195232Y-68983954D01*
X110255300Y-68785934D01*
X110275583Y-68580000D01*
X115834659Y-68580000D01*
X115853975Y-68776129D01*
X115911188Y-68964733D01*
X116004086Y-69138532D01*
X116004090Y-69138539D01*
X116129116Y-69290883D01*
X116281460Y-69415909D01*
X116281467Y-69415913D01*
X116455266Y-69508811D01*
X116455269Y-69508811D01*
X116455273Y-69508814D01*
X116643868Y-69566024D01*
X116840000Y-69585341D01*
X117036132Y-69566024D01*
X117224727Y-69508814D01*
X117398538Y-69415910D01*
X117550883Y-69290883D01*
X117675910Y-69138538D01*
X117768814Y-68964727D01*
X117826024Y-68776132D01*
X117845341Y-68580000D01*
X123454659Y-68580000D01*
X123473975Y-68776129D01*
X123531188Y-68964733D01*
X123624086Y-69138532D01*
X123624090Y-69138539D01*
X123749116Y-69290883D01*
X123901460Y-69415909D01*
X123901467Y-69415913D01*
X124075266Y-69508811D01*
X124075269Y-69508811D01*
X124075273Y-69508814D01*
X124263868Y-69566024D01*
X124460000Y-69585341D01*
X124656132Y-69566024D01*
X124844727Y-69508814D01*
X125018538Y-69415910D01*
X125170883Y-69290883D01*
X125295910Y-69138538D01*
X125388814Y-68964727D01*
X125446024Y-68776132D01*
X125465341Y-68580000D01*
X125446024Y-68383868D01*
X125388814Y-68195273D01*
X125388811Y-68195269D01*
X125388811Y-68195266D01*
X125295913Y-68021467D01*
X125295909Y-68021460D01*
X125170883Y-67869116D01*
X125018539Y-67744090D01*
X125018532Y-67744086D01*
X124844733Y-67651188D01*
X124844727Y-67651186D01*
X124656132Y-67593976D01*
X124656129Y-67593975D01*
X124460000Y-67574659D01*
X124263870Y-67593975D01*
X124075266Y-67651188D01*
X123901467Y-67744086D01*
X123901460Y-67744090D01*
X123749116Y-67869116D01*
X123624090Y-68021460D01*
X123624086Y-68021467D01*
X123531188Y-68195266D01*
X123473975Y-68383870D01*
X123454659Y-68580000D01*
X117845341Y-68580000D01*
X117826024Y-68383868D01*
X117768814Y-68195273D01*
X117768811Y-68195269D01*
X117768811Y-68195266D01*
X117675913Y-68021467D01*
X117675909Y-68021460D01*
X117550883Y-67869116D01*
X117398539Y-67744090D01*
X117398532Y-67744086D01*
X117224733Y-67651188D01*
X117224727Y-67651186D01*
X117036132Y-67593976D01*
X117036129Y-67593975D01*
X116840000Y-67574659D01*
X116643870Y-67593975D01*
X116455266Y-67651188D01*
X116281467Y-67744086D01*
X116281460Y-67744090D01*
X116129116Y-67869116D01*
X116004090Y-68021460D01*
X116004086Y-68021467D01*
X115911188Y-68195266D01*
X115853975Y-68383870D01*
X115834659Y-68580000D01*
X110275583Y-68580000D01*
X110255300Y-68374066D01*
X110195232Y-68176046D01*
X110097685Y-67993550D01*
X110045702Y-67930209D01*
X109966410Y-67833589D01*
X109806452Y-67702317D01*
X109806453Y-67702317D01*
X109806450Y-67702315D01*
X109623954Y-67604768D01*
X109425934Y-67544700D01*
X109425932Y-67544699D01*
X109425934Y-67544699D01*
X109220000Y-67524417D01*
X109014067Y-67544699D01*
X108816043Y-67604769D01*
X108729205Y-67651186D01*
X108633550Y-67702315D01*
X108633548Y-67702316D01*
X108633547Y-67702317D01*
X108473589Y-67833589D01*
X108342317Y-67993547D01*
X108244769Y-68176043D01*
X108184699Y-68374067D01*
X108164417Y-68580000D01*
X107735583Y-68580000D01*
X107715300Y-68374066D01*
X107655232Y-68176046D01*
X107557685Y-67993550D01*
X107505702Y-67930209D01*
X107426410Y-67833589D01*
X107266452Y-67702317D01*
X107266453Y-67702317D01*
X107266450Y-67702315D01*
X107083954Y-67604768D01*
X106885934Y-67544700D01*
X106885932Y-67544699D01*
X106885934Y-67544699D01*
X106680000Y-67524417D01*
X106474067Y-67544699D01*
X106276043Y-67604769D01*
X106189205Y-67651186D01*
X106093550Y-67702315D01*
X106093548Y-67702316D01*
X106093547Y-67702317D01*
X105933589Y-67833589D01*
X105802317Y-67993547D01*
X105704769Y-68176043D01*
X105644699Y-68374067D01*
X105624417Y-68580000D01*
X100500500Y-68580000D01*
X100500500Y-66040000D01*
X105624417Y-66040000D01*
X105644699Y-66245932D01*
X105644700Y-66245934D01*
X105704768Y-66443954D01*
X105802315Y-66626450D01*
X105802317Y-66626452D01*
X105933589Y-66786410D01*
X106030209Y-66865702D01*
X106093550Y-66917685D01*
X106276046Y-67015232D01*
X106474066Y-67075300D01*
X106474065Y-67075300D01*
X106492529Y-67077118D01*
X106680000Y-67095583D01*
X106885934Y-67075300D01*
X107083954Y-67015232D01*
X107266450Y-66917685D01*
X107426410Y-66786410D01*
X107557685Y-66626450D01*
X107655232Y-66443954D01*
X107715300Y-66245934D01*
X107735583Y-66040000D01*
X108164417Y-66040000D01*
X108184699Y-66245932D01*
X108184700Y-66245934D01*
X108244768Y-66443954D01*
X108342315Y-66626450D01*
X108342317Y-66626452D01*
X108473589Y-66786410D01*
X108570209Y-66865702D01*
X108633550Y-66917685D01*
X108816046Y-67015232D01*
X109014066Y-67075300D01*
X109014065Y-67075300D01*
X109032529Y-67077118D01*
X109220000Y-67095583D01*
X109425934Y-67075300D01*
X109623954Y-67015232D01*
X109806450Y-66917685D01*
X109966410Y-66786410D01*
X110097685Y-66626450D01*
X110195232Y-66443954D01*
X110255300Y-66245934D01*
X110275583Y-66040000D01*
X115834659Y-66040000D01*
X115853975Y-66236129D01*
X115853976Y-66236132D01*
X115891575Y-66360080D01*
X115911188Y-66424733D01*
X116004086Y-66598532D01*
X116004090Y-66598539D01*
X116129116Y-66750883D01*
X116281460Y-66875909D01*
X116281467Y-66875913D01*
X116455266Y-66968811D01*
X116455269Y-66968811D01*
X116455273Y-66968814D01*
X116643868Y-67026024D01*
X116840000Y-67045341D01*
X117036132Y-67026024D01*
X117224727Y-66968814D01*
X117398538Y-66875910D01*
X117550883Y-66750883D01*
X117675910Y-66598538D01*
X117758537Y-66443954D01*
X117768811Y-66424733D01*
X117768811Y-66424732D01*
X117768814Y-66424727D01*
X117826024Y-66236132D01*
X117845341Y-66040000D01*
X117826024Y-65843868D01*
X117809683Y-65789999D01*
X123490839Y-65789999D01*
X123490840Y-65790000D01*
X124144314Y-65790000D01*
X124139920Y-65794394D01*
X124087259Y-65885606D01*
X124060000Y-65987339D01*
X124060000Y-66092661D01*
X124087259Y-66194394D01*
X124139920Y-66285606D01*
X124144314Y-66290000D01*
X123490840Y-66290000D01*
X123531652Y-66424541D01*
X123624503Y-66598253D01*
X123624507Y-66598260D01*
X123749471Y-66750528D01*
X123901739Y-66875491D01*
X124075465Y-66968349D01*
X124210000Y-67009159D01*
X124210000Y-66355686D01*
X124214394Y-66360080D01*
X124305606Y-66412741D01*
X124407339Y-66440000D01*
X124512661Y-66440000D01*
X124614394Y-66412741D01*
X124705606Y-66360080D01*
X124710000Y-66355686D01*
X124710000Y-67009159D01*
X124844534Y-66968349D01*
X125018260Y-66875491D01*
X125170528Y-66750528D01*
X125295492Y-66598260D01*
X125295496Y-66598253D01*
X125388347Y-66424541D01*
X125429160Y-66290000D01*
X124775686Y-66290000D01*
X124780080Y-66285606D01*
X124832741Y-66194394D01*
X124860000Y-66092661D01*
X124860000Y-65987339D01*
X124832741Y-65885606D01*
X124780080Y-65794394D01*
X124775686Y-65790000D01*
X125429160Y-65790000D01*
X125429160Y-65789999D01*
X125388347Y-65655458D01*
X125295496Y-65481746D01*
X125295492Y-65481739D01*
X125170528Y-65329471D01*
X125018260Y-65204507D01*
X125018253Y-65204503D01*
X124844541Y-65111652D01*
X124710000Y-65070839D01*
X124710000Y-65724314D01*
X124705606Y-65719920D01*
X124614394Y-65667259D01*
X124512661Y-65640000D01*
X124407339Y-65640000D01*
X124305606Y-65667259D01*
X124214394Y-65719920D01*
X124210000Y-65724314D01*
X124210000Y-65070839D01*
X124209999Y-65070839D01*
X124075458Y-65111652D01*
X123901746Y-65204503D01*
X123901739Y-65204507D01*
X123749471Y-65329471D01*
X123624507Y-65481739D01*
X123624503Y-65481746D01*
X123531652Y-65655458D01*
X123490839Y-65789999D01*
X117809683Y-65789999D01*
X117768814Y-65655273D01*
X117768811Y-65655269D01*
X117768811Y-65655266D01*
X117675913Y-65481467D01*
X117675909Y-65481460D01*
X117550883Y-65329116D01*
X117398539Y-65204090D01*
X117398532Y-65204086D01*
X117224733Y-65111188D01*
X117224727Y-65111186D01*
X117036132Y-65053976D01*
X117036129Y-65053975D01*
X116840000Y-65034659D01*
X116643870Y-65053975D01*
X116455266Y-65111188D01*
X116281467Y-65204086D01*
X116281460Y-65204090D01*
X116129116Y-65329116D01*
X116004090Y-65481460D01*
X116004086Y-65481467D01*
X115911188Y-65655266D01*
X115853975Y-65843870D01*
X115834659Y-66040000D01*
X110275583Y-66040000D01*
X110255300Y-65834066D01*
X110195232Y-65636046D01*
X110097685Y-65453550D01*
X109995857Y-65329471D01*
X109966410Y-65293589D01*
X109806452Y-65162317D01*
X109806453Y-65162317D01*
X109806450Y-65162315D01*
X109623954Y-65064768D01*
X109425934Y-65004700D01*
X109425932Y-65004699D01*
X109425934Y-65004699D01*
X109220000Y-64984417D01*
X109014067Y-65004699D01*
X108816043Y-65064769D01*
X108729205Y-65111186D01*
X108633550Y-65162315D01*
X108633548Y-65162316D01*
X108633547Y-65162317D01*
X108473589Y-65293589D01*
X108342317Y-65453547D01*
X108244769Y-65636043D01*
X108184699Y-65834067D01*
X108164417Y-66040000D01*
X107735583Y-66040000D01*
X107715300Y-65834066D01*
X107655232Y-65636046D01*
X107557685Y-65453550D01*
X107455857Y-65329471D01*
X107426410Y-65293589D01*
X107266452Y-65162317D01*
X107266453Y-65162317D01*
X107266450Y-65162315D01*
X107083954Y-65064768D01*
X106885934Y-65004700D01*
X106885932Y-65004699D01*
X106885934Y-65004699D01*
X106680000Y-64984417D01*
X106474067Y-65004699D01*
X106276043Y-65064769D01*
X106189205Y-65111186D01*
X106093550Y-65162315D01*
X106093548Y-65162316D01*
X106093547Y-65162317D01*
X105933589Y-65293589D01*
X105802317Y-65453547D01*
X105704769Y-65636043D01*
X105644699Y-65834067D01*
X105624417Y-66040000D01*
X100500500Y-66040000D01*
X100500500Y-63500000D01*
X105624417Y-63500000D01*
X105644699Y-63705932D01*
X105644700Y-63705934D01*
X105704768Y-63903954D01*
X105802315Y-64086450D01*
X105802317Y-64086452D01*
X105933589Y-64246410D01*
X106030209Y-64325702D01*
X106093550Y-64377685D01*
X106276046Y-64475232D01*
X106474066Y-64535300D01*
X106474065Y-64535300D01*
X106492529Y-64537118D01*
X106680000Y-64555583D01*
X106885934Y-64535300D01*
X107083954Y-64475232D01*
X107266450Y-64377685D01*
X107426410Y-64246410D01*
X107557685Y-64086450D01*
X107655232Y-63903954D01*
X107715300Y-63705934D01*
X107735583Y-63500000D01*
X107715300Y-63294066D01*
X107655232Y-63096046D01*
X107557685Y-62913550D01*
X107505702Y-62850209D01*
X107426410Y-62753589D01*
X107276121Y-62630252D01*
X107276115Y-62630247D01*
X108169500Y-62630247D01*
X108169500Y-64369752D01*
X108181131Y-64428229D01*
X108181132Y-64428230D01*
X108225447Y-64494552D01*
X108291769Y-64538867D01*
X108291770Y-64538868D01*
X108350247Y-64550499D01*
X108350250Y-64550500D01*
X108350252Y-64550500D01*
X110089750Y-64550500D01*
X110089751Y-64550499D01*
X110104568Y-64547552D01*
X110148229Y-64538868D01*
X110148229Y-64538867D01*
X110148231Y-64538867D01*
X110214552Y-64494552D01*
X110258867Y-64428231D01*
X110258867Y-64428229D01*
X110258868Y-64428229D01*
X110267552Y-64384568D01*
X110270500Y-64369748D01*
X110270500Y-63500000D01*
X115834659Y-63500000D01*
X115853975Y-63696129D01*
X115911188Y-63884733D01*
X116004086Y-64058532D01*
X116004090Y-64058539D01*
X116129116Y-64210883D01*
X116281460Y-64335909D01*
X116281467Y-64335913D01*
X116455266Y-64428811D01*
X116455269Y-64428811D01*
X116455273Y-64428814D01*
X116643868Y-64486024D01*
X116840000Y-64505341D01*
X117036132Y-64486024D01*
X117224727Y-64428814D01*
X117225822Y-64428229D01*
X117398532Y-64335913D01*
X117398538Y-64335910D01*
X117550883Y-64210883D01*
X117675910Y-64058538D01*
X117768814Y-63884727D01*
X117826024Y-63696132D01*
X117845341Y-63500000D01*
X123454659Y-63500000D01*
X123473975Y-63696129D01*
X123531188Y-63884733D01*
X123624086Y-64058532D01*
X123624090Y-64058539D01*
X123749116Y-64210883D01*
X123901460Y-64335909D01*
X123901467Y-64335913D01*
X124075266Y-64428811D01*
X124075269Y-64428811D01*
X124075273Y-64428814D01*
X124263868Y-64486024D01*
X124460000Y-64505341D01*
X124656132Y-64486024D01*
X124844727Y-64428814D01*
X124845822Y-64428229D01*
X125018532Y-64335913D01*
X125018538Y-64335910D01*
X125170883Y-64210883D01*
X125295910Y-64058538D01*
X125388814Y-63884727D01*
X125446024Y-63696132D01*
X125465341Y-63500000D01*
X125446024Y-63303868D01*
X125388814Y-63115273D01*
X125388811Y-63115269D01*
X125388811Y-63115266D01*
X125295913Y-62941467D01*
X125295909Y-62941460D01*
X125170883Y-62789116D01*
X125018539Y-62664090D01*
X125018532Y-62664086D01*
X124844733Y-62571188D01*
X124844727Y-62571186D01*
X124656132Y-62513976D01*
X124656129Y-62513975D01*
X124460000Y-62494659D01*
X124263870Y-62513975D01*
X124075266Y-62571188D01*
X123901467Y-62664086D01*
X123901460Y-62664090D01*
X123749116Y-62789116D01*
X123624090Y-62941460D01*
X123624086Y-62941467D01*
X123531188Y-63115266D01*
X123473975Y-63303870D01*
X123454659Y-63500000D01*
X117845341Y-63500000D01*
X117826024Y-63303868D01*
X117768814Y-63115273D01*
X117768811Y-63115269D01*
X117768811Y-63115266D01*
X117675913Y-62941467D01*
X117675909Y-62941460D01*
X117550883Y-62789116D01*
X117398539Y-62664090D01*
X117398532Y-62664086D01*
X117224733Y-62571188D01*
X117224727Y-62571186D01*
X117036132Y-62513976D01*
X117036129Y-62513975D01*
X116840000Y-62494659D01*
X116643870Y-62513975D01*
X116455266Y-62571188D01*
X116281467Y-62664086D01*
X116281460Y-62664090D01*
X116129116Y-62789116D01*
X116004090Y-62941460D01*
X116004086Y-62941467D01*
X115911188Y-63115266D01*
X115853975Y-63303870D01*
X115834659Y-63500000D01*
X110270500Y-63500000D01*
X110270500Y-62630252D01*
X110270500Y-62630249D01*
X110270499Y-62630247D01*
X110258868Y-62571770D01*
X110258867Y-62571769D01*
X110214552Y-62505447D01*
X110148230Y-62461132D01*
X110148229Y-62461131D01*
X110089752Y-62449500D01*
X110089748Y-62449500D01*
X108350252Y-62449500D01*
X108350247Y-62449500D01*
X108291770Y-62461131D01*
X108291769Y-62461132D01*
X108225447Y-62505447D01*
X108181132Y-62571769D01*
X108181131Y-62571770D01*
X108169500Y-62630247D01*
X107276115Y-62630247D01*
X107266450Y-62622315D01*
X107083954Y-62524768D01*
X106885934Y-62464700D01*
X106885932Y-62464699D01*
X106885934Y-62464699D01*
X106680000Y-62444417D01*
X106474067Y-62464699D01*
X106276043Y-62524769D01*
X106189205Y-62571186D01*
X106093550Y-62622315D01*
X106093548Y-62622316D01*
X106093547Y-62622317D01*
X105933589Y-62753589D01*
X105802317Y-62913547D01*
X105802315Y-62913550D01*
X105799841Y-62918179D01*
X105704769Y-63096043D01*
X105704768Y-63096045D01*
X105704768Y-63096046D01*
X105698938Y-63115266D01*
X105644699Y-63294067D01*
X105624417Y-63500000D01*
X100500500Y-63500000D01*
X100500500Y-58420000D01*
X115834659Y-58420000D01*
X115853975Y-58616129D01*
X115867901Y-58662035D01*
X115910800Y-58803456D01*
X115911188Y-58804733D01*
X116004086Y-58978532D01*
X116004090Y-58978539D01*
X116129116Y-59130883D01*
X116281460Y-59255909D01*
X116281467Y-59255913D01*
X116455266Y-59348811D01*
X116455269Y-59348811D01*
X116455273Y-59348814D01*
X116643868Y-59406024D01*
X116840000Y-59425341D01*
X117036132Y-59406024D01*
X117224727Y-59348814D01*
X117398538Y-59255910D01*
X117550883Y-59130883D01*
X117675910Y-58978538D01*
X117768814Y-58804727D01*
X117826024Y-58616132D01*
X117845341Y-58420000D01*
X117826024Y-58223868D01*
X117768814Y-58035273D01*
X117768811Y-58035269D01*
X117768811Y-58035266D01*
X117675913Y-57861467D01*
X117675909Y-57861460D01*
X117550883Y-57709116D01*
X117398539Y-57584090D01*
X117398532Y-57584086D01*
X117224733Y-57491188D01*
X117224727Y-57491186D01*
X117036132Y-57433976D01*
X117036129Y-57433975D01*
X116840000Y-57414659D01*
X116643870Y-57433975D01*
X116455266Y-57491188D01*
X116281467Y-57584086D01*
X116281460Y-57584090D01*
X116129116Y-57709116D01*
X116004090Y-57861460D01*
X116004086Y-57861467D01*
X115911188Y-58035266D01*
X115853975Y-58223870D01*
X115834659Y-58420000D01*
X100500500Y-58420000D01*
X100500500Y-55880000D01*
X115834659Y-55880000D01*
X115853975Y-56076129D01*
X115911188Y-56264733D01*
X116004086Y-56438532D01*
X116004090Y-56438539D01*
X116129116Y-56590883D01*
X116281460Y-56715909D01*
X116281467Y-56715913D01*
X116455266Y-56808811D01*
X116455269Y-56808811D01*
X116455273Y-56808814D01*
X116643868Y-56866024D01*
X116840000Y-56885341D01*
X117036132Y-56866024D01*
X117224727Y-56808814D01*
X117398538Y-56715910D01*
X117550883Y-56590883D01*
X117675910Y-56438538D01*
X117768814Y-56264727D01*
X117826024Y-56076132D01*
X117845341Y-55880000D01*
X117826024Y-55683868D01*
X117768814Y-55495273D01*
X117768811Y-55495269D01*
X117768811Y-55495266D01*
X117675913Y-55321467D01*
X117675909Y-55321460D01*
X117550883Y-55169116D01*
X117398539Y-55044090D01*
X117398532Y-55044086D01*
X117224733Y-54951188D01*
X117224727Y-54951186D01*
X117036132Y-54893976D01*
X117036129Y-54893975D01*
X116840000Y-54874659D01*
X116643870Y-54893975D01*
X116455266Y-54951188D01*
X116281467Y-55044086D01*
X116281460Y-55044090D01*
X116129116Y-55169116D01*
X116004090Y-55321460D01*
X116004086Y-55321467D01*
X115911188Y-55495266D01*
X115853975Y-55683870D01*
X115834659Y-55880000D01*
X100500500Y-55880000D01*
X100500500Y-53090000D01*
X108198590Y-53090000D01*
X108786988Y-53090000D01*
X108754075Y-53147007D01*
X108720000Y-53274174D01*
X108720000Y-53405826D01*
X108754075Y-53532993D01*
X108786988Y-53590000D01*
X108198590Y-53590000D01*
X108245233Y-53743766D01*
X108342728Y-53926166D01*
X108342732Y-53926173D01*
X108473944Y-54086055D01*
X108633826Y-54217267D01*
X108633833Y-54217271D01*
X108816233Y-54314766D01*
X108970000Y-54361410D01*
X108970000Y-53773012D01*
X109027007Y-53805925D01*
X109154174Y-53840000D01*
X109285826Y-53840000D01*
X109412993Y-53805925D01*
X109470000Y-53773012D01*
X109470000Y-54361410D01*
X109623766Y-54314766D01*
X109806166Y-54217271D01*
X109806173Y-54217267D01*
X109966055Y-54086055D01*
X110097267Y-53926173D01*
X110097271Y-53926166D01*
X110194766Y-53743766D01*
X110241410Y-53590000D01*
X109653012Y-53590000D01*
X109685925Y-53532993D01*
X109720000Y-53405826D01*
X109720000Y-53340000D01*
X115834659Y-53340000D01*
X115853975Y-53536129D01*
X115868984Y-53585606D01*
X115891575Y-53660080D01*
X115911188Y-53724733D01*
X116004086Y-53898532D01*
X116004090Y-53898539D01*
X116129116Y-54050883D01*
X116281460Y-54175909D01*
X116281467Y-54175913D01*
X116455266Y-54268811D01*
X116455269Y-54268811D01*
X116455273Y-54268814D01*
X116643868Y-54326024D01*
X116840000Y-54345341D01*
X117036132Y-54326024D01*
X117224727Y-54268814D01*
X117398538Y-54175910D01*
X117550883Y-54050883D01*
X117675910Y-53898538D01*
X117725413Y-53805925D01*
X117768811Y-53724733D01*
X117768811Y-53724732D01*
X117768814Y-53724727D01*
X117826024Y-53536132D01*
X117845341Y-53340000D01*
X117826024Y-53143868D01*
X117768814Y-52955273D01*
X117768811Y-52955269D01*
X117768811Y-52955266D01*
X117675913Y-52781467D01*
X117675909Y-52781460D01*
X117550883Y-52629116D01*
X117398539Y-52504090D01*
X117398532Y-52504086D01*
X117224733Y-52411188D01*
X117224727Y-52411186D01*
X117036132Y-52353976D01*
X117036129Y-52353975D01*
X116840000Y-52334659D01*
X116643870Y-52353975D01*
X116455266Y-52411188D01*
X116281467Y-52504086D01*
X116281460Y-52504090D01*
X116129116Y-52629116D01*
X116004090Y-52781460D01*
X116004086Y-52781467D01*
X115911188Y-52955266D01*
X115853975Y-53143870D01*
X115834659Y-53340000D01*
X109720000Y-53340000D01*
X109720000Y-53274174D01*
X109685925Y-53147007D01*
X109653012Y-53090000D01*
X110241410Y-53090000D01*
X110194766Y-52936233D01*
X110097271Y-52753833D01*
X110097267Y-52753826D01*
X109966055Y-52593944D01*
X109806173Y-52462732D01*
X109806166Y-52462728D01*
X109623763Y-52365232D01*
X109470000Y-52318587D01*
X109470000Y-52906988D01*
X109412993Y-52874075D01*
X109285826Y-52840000D01*
X109154174Y-52840000D01*
X109027007Y-52874075D01*
X108970000Y-52906988D01*
X108970000Y-52318587D01*
X108816236Y-52365232D01*
X108633833Y-52462728D01*
X108633826Y-52462732D01*
X108473944Y-52593944D01*
X108342732Y-52753826D01*
X108342728Y-52753833D01*
X108245233Y-52936233D01*
X108198590Y-53090000D01*
X100500500Y-53090000D01*
X100500500Y-50800000D01*
X108164417Y-50800000D01*
X108184699Y-51005932D01*
X108184700Y-51005934D01*
X108244768Y-51203954D01*
X108342315Y-51386450D01*
X108342317Y-51386452D01*
X108473589Y-51546410D01*
X108570209Y-51625702D01*
X108633550Y-51677685D01*
X108816046Y-51775232D01*
X109014066Y-51835300D01*
X109014065Y-51835300D01*
X109032529Y-51837118D01*
X109220000Y-51855583D01*
X109425934Y-51835300D01*
X109623954Y-51775232D01*
X109806450Y-51677685D01*
X109966410Y-51546410D01*
X110097685Y-51386450D01*
X110195232Y-51203954D01*
X110255300Y-51005934D01*
X110275583Y-50800000D01*
X115834659Y-50800000D01*
X115853975Y-50996129D01*
X115911188Y-51184733D01*
X116004086Y-51358532D01*
X116004090Y-51358539D01*
X116129116Y-51510883D01*
X116281460Y-51635909D01*
X116281467Y-51635913D01*
X116455266Y-51728811D01*
X116455269Y-51728811D01*
X116455273Y-51728814D01*
X116643868Y-51786024D01*
X116840000Y-51805341D01*
X117036132Y-51786024D01*
X117224727Y-51728814D01*
X117398538Y-51635910D01*
X117550883Y-51510883D01*
X117675910Y-51358538D01*
X117768814Y-51184727D01*
X117826024Y-50996132D01*
X117845341Y-50800000D01*
X117826024Y-50603868D01*
X117768814Y-50415273D01*
X117768811Y-50415269D01*
X117768811Y-50415266D01*
X117675913Y-50241467D01*
X117675909Y-50241460D01*
X117550883Y-50089116D01*
X117398539Y-49964090D01*
X117398532Y-49964086D01*
X117224733Y-49871188D01*
X117224727Y-49871186D01*
X117036132Y-49813976D01*
X117036129Y-49813975D01*
X116840000Y-49794659D01*
X116643870Y-49813975D01*
X116455266Y-49871188D01*
X116281467Y-49964086D01*
X116281460Y-49964090D01*
X116129116Y-50089116D01*
X116004090Y-50241460D01*
X116004086Y-50241467D01*
X115911188Y-50415266D01*
X115853975Y-50603870D01*
X115834659Y-50800000D01*
X110275583Y-50800000D01*
X110255300Y-50594066D01*
X110195232Y-50396046D01*
X110097685Y-50213550D01*
X110045702Y-50150209D01*
X109966410Y-50053589D01*
X109806452Y-49922317D01*
X109806453Y-49922317D01*
X109806450Y-49922315D01*
X109623954Y-49824768D01*
X109425934Y-49764700D01*
X109425932Y-49764699D01*
X109425934Y-49764699D01*
X109220000Y-49744417D01*
X109014067Y-49764699D01*
X108816043Y-49824769D01*
X108729205Y-49871186D01*
X108633550Y-49922315D01*
X108633548Y-49922316D01*
X108633547Y-49922317D01*
X108473589Y-50053589D01*
X108342317Y-50213547D01*
X108342315Y-50213550D01*
X108339841Y-50218179D01*
X108244769Y-50396043D01*
X108244768Y-50396045D01*
X108244768Y-50396046D01*
X108238938Y-50415266D01*
X108184699Y-50594067D01*
X108164417Y-50800000D01*
X100500500Y-50800000D01*
X100500500Y-48260000D01*
X108164417Y-48260000D01*
X108184699Y-48465932D01*
X108184700Y-48465934D01*
X108244768Y-48663954D01*
X108342315Y-48846450D01*
X108342317Y-48846452D01*
X108473589Y-49006410D01*
X108570209Y-49085702D01*
X108633550Y-49137685D01*
X108816046Y-49235232D01*
X109014066Y-49295300D01*
X109014065Y-49295300D01*
X109032529Y-49297118D01*
X109220000Y-49315583D01*
X109425934Y-49295300D01*
X109623954Y-49235232D01*
X109806450Y-49137685D01*
X109966410Y-49006410D01*
X110097685Y-48846450D01*
X110195232Y-48663954D01*
X110255300Y-48465934D01*
X110275583Y-48260000D01*
X115834659Y-48260000D01*
X115853975Y-48456129D01*
X115911188Y-48644733D01*
X116004086Y-48818532D01*
X116004090Y-48818539D01*
X116129116Y-48970883D01*
X116281460Y-49095909D01*
X116281467Y-49095913D01*
X116455266Y-49188811D01*
X116455269Y-49188811D01*
X116455273Y-49188814D01*
X116643868Y-49246024D01*
X116840000Y-49265341D01*
X117036132Y-49246024D01*
X117224727Y-49188814D01*
X117398538Y-49095910D01*
X117550883Y-48970883D01*
X117675910Y-48818538D01*
X117768814Y-48644727D01*
X117826024Y-48456132D01*
X117845341Y-48260000D01*
X117826024Y-48063868D01*
X117768814Y-47875273D01*
X117768811Y-47875269D01*
X117768811Y-47875266D01*
X117675913Y-47701467D01*
X117675909Y-47701460D01*
X117550883Y-47549116D01*
X117398539Y-47424090D01*
X117398532Y-47424086D01*
X117224733Y-47331188D01*
X117224727Y-47331186D01*
X117036132Y-47273976D01*
X117036129Y-47273975D01*
X116840000Y-47254659D01*
X116643870Y-47273975D01*
X116455266Y-47331188D01*
X116281467Y-47424086D01*
X116281460Y-47424090D01*
X116129116Y-47549116D01*
X116004090Y-47701460D01*
X116004086Y-47701467D01*
X115911188Y-47875266D01*
X115853975Y-48063870D01*
X115834659Y-48260000D01*
X110275583Y-48260000D01*
X110255300Y-48054066D01*
X110195232Y-47856046D01*
X110097685Y-47673550D01*
X110045702Y-47610209D01*
X109966410Y-47513589D01*
X109806452Y-47382317D01*
X109806453Y-47382317D01*
X109806450Y-47382315D01*
X109623954Y-47284768D01*
X109425934Y-47224700D01*
X109425932Y-47224699D01*
X109425934Y-47224699D01*
X109220000Y-47204417D01*
X109014067Y-47224699D01*
X108816043Y-47284769D01*
X108729205Y-47331186D01*
X108633550Y-47382315D01*
X108633548Y-47382316D01*
X108633547Y-47382317D01*
X108473589Y-47513589D01*
X108342317Y-47673547D01*
X108342315Y-47673550D01*
X108339841Y-47678179D01*
X108244769Y-47856043D01*
X108244768Y-47856045D01*
X108244768Y-47856046D01*
X108238938Y-47875266D01*
X108184699Y-48054067D01*
X108164417Y-48260000D01*
X100500500Y-48260000D01*
X100500500Y-44850247D01*
X108169500Y-44850247D01*
X108169500Y-46589752D01*
X108181131Y-46648229D01*
X108181132Y-46648230D01*
X108225447Y-46714552D01*
X108291769Y-46758867D01*
X108291770Y-46758868D01*
X108350247Y-46770499D01*
X108350250Y-46770500D01*
X108350252Y-46770500D01*
X110089750Y-46770500D01*
X110089751Y-46770499D01*
X110104568Y-46767552D01*
X110148229Y-46758868D01*
X110148229Y-46758867D01*
X110148231Y-46758867D01*
X110214552Y-46714552D01*
X110258867Y-46648231D01*
X110258867Y-46648229D01*
X110258868Y-46648229D01*
X110267552Y-46604568D01*
X110270500Y-46589748D01*
X110270500Y-45720000D01*
X115834659Y-45720000D01*
X115853975Y-45916129D01*
X115856850Y-45925606D01*
X115911128Y-46104537D01*
X115911188Y-46104733D01*
X116004086Y-46278532D01*
X116004090Y-46278539D01*
X116129116Y-46430883D01*
X116281460Y-46555909D01*
X116281467Y-46555913D01*
X116455266Y-46648811D01*
X116455269Y-46648811D01*
X116455273Y-46648814D01*
X116643868Y-46706024D01*
X116840000Y-46725341D01*
X117036132Y-46706024D01*
X117224727Y-46648814D01*
X117225822Y-46648229D01*
X117398532Y-46555913D01*
X117398538Y-46555910D01*
X117550883Y-46430883D01*
X117675910Y-46278538D01*
X117725413Y-46185925D01*
X117768811Y-46104733D01*
X117768811Y-46104732D01*
X117768814Y-46104727D01*
X117826024Y-45916132D01*
X117845341Y-45720000D01*
X117826024Y-45523868D01*
X117768814Y-45335273D01*
X117768811Y-45335269D01*
X117768811Y-45335266D01*
X117675913Y-45161467D01*
X117675909Y-45161460D01*
X117550883Y-45009116D01*
X117398539Y-44884090D01*
X117398532Y-44884086D01*
X117224733Y-44791188D01*
X117224727Y-44791186D01*
X117036132Y-44733976D01*
X117036129Y-44733975D01*
X116840000Y-44714659D01*
X116643870Y-44733975D01*
X116455266Y-44791188D01*
X116281467Y-44884086D01*
X116281460Y-44884090D01*
X116129116Y-45009116D01*
X116004090Y-45161460D01*
X116004086Y-45161467D01*
X115911188Y-45335266D01*
X115853975Y-45523870D01*
X115834659Y-45720000D01*
X110270500Y-45720000D01*
X110270500Y-45287255D01*
X110290185Y-45220216D01*
X110306819Y-45199574D01*
X111889574Y-43616819D01*
X111950897Y-43583334D01*
X111977255Y-43580500D01*
X122183034Y-43580500D01*
X122250073Y-43600185D01*
X122295828Y-43652989D01*
X122305772Y-43722147D01*
X122276747Y-43785703D01*
X122270715Y-43792181D01*
X121339513Y-44723383D01*
X121339509Y-44723389D01*
X121280201Y-44826112D01*
X121280200Y-44826117D01*
X121249500Y-44940691D01*
X121249500Y-58662035D01*
X121229815Y-58729074D01*
X121213181Y-58749716D01*
X119489716Y-60473181D01*
X119428393Y-60506666D01*
X119402035Y-60509500D01*
X117807980Y-60509500D01*
X117740941Y-60489815D01*
X117698622Y-60443953D01*
X117675909Y-60401460D01*
X117550883Y-60249116D01*
X117398539Y-60124090D01*
X117398532Y-60124086D01*
X117224733Y-60031188D01*
X117224727Y-60031186D01*
X117098997Y-59993046D01*
X117036129Y-59973975D01*
X116840000Y-59954659D01*
X116643870Y-59973975D01*
X116455266Y-60031188D01*
X116281467Y-60124086D01*
X116281460Y-60124090D01*
X116129116Y-60249116D01*
X116004090Y-60401460D01*
X116004086Y-60401467D01*
X115911188Y-60575266D01*
X115853975Y-60763870D01*
X115834659Y-60960000D01*
X115853975Y-61156129D01*
X115873046Y-61218997D01*
X115903833Y-61320489D01*
X115911188Y-61344733D01*
X116004086Y-61518532D01*
X116004090Y-61518539D01*
X116129116Y-61670883D01*
X116281460Y-61795909D01*
X116281467Y-61795913D01*
X116455266Y-61888811D01*
X116455269Y-61888811D01*
X116455273Y-61888814D01*
X116643868Y-61946024D01*
X116840000Y-61965341D01*
X117036132Y-61946024D01*
X117224727Y-61888814D01*
X117398538Y-61795910D01*
X117550883Y-61670883D01*
X117675910Y-61518538D01*
X117698622Y-61476046D01*
X117747584Y-61426202D01*
X117807980Y-61410500D01*
X119699308Y-61410500D01*
X119699309Y-61410500D01*
X119789673Y-61386286D01*
X119813887Y-61379799D01*
X119916614Y-61320489D01*
X121683029Y-59554072D01*
X121744352Y-59520588D01*
X121814044Y-59525572D01*
X121858391Y-59554073D01*
X122284788Y-59980470D01*
X122364712Y-60026614D01*
X122453856Y-60050500D01*
X123649941Y-60050500D01*
X123716980Y-60070185D01*
X123762735Y-60122989D01*
X123772679Y-60192147D01*
X123745794Y-60253165D01*
X123624090Y-60401460D01*
X123624086Y-60401467D01*
X123531188Y-60575266D01*
X123473975Y-60763870D01*
X123454659Y-60960000D01*
X123473975Y-61156129D01*
X123493046Y-61218997D01*
X123523833Y-61320489D01*
X123531188Y-61344733D01*
X123624086Y-61518532D01*
X123624090Y-61518539D01*
X123749116Y-61670883D01*
X123901460Y-61795909D01*
X123901467Y-61795913D01*
X124075266Y-61888811D01*
X124075269Y-61888811D01*
X124075273Y-61888814D01*
X124263868Y-61946024D01*
X124460000Y-61965341D01*
X124656132Y-61946024D01*
X124844727Y-61888814D01*
X125018538Y-61795910D01*
X125170883Y-61670883D01*
X125295910Y-61518538D01*
X125388814Y-61344727D01*
X125446024Y-61156132D01*
X125465341Y-60960000D01*
X125446024Y-60763868D01*
X125388814Y-60575273D01*
X125388811Y-60575269D01*
X125388811Y-60575266D01*
X125295913Y-60401467D01*
X125295909Y-60401460D01*
X125174206Y-60253165D01*
X125146893Y-60188855D01*
X125158684Y-60119987D01*
X125205836Y-60068427D01*
X125270059Y-60050500D01*
X127603456Y-60050500D01*
X127670495Y-60070185D01*
X127691137Y-60086819D01*
X129153181Y-61548863D01*
X129186666Y-61610186D01*
X129189500Y-61636544D01*
X129189500Y-67558568D01*
X129169815Y-67625607D01*
X129123953Y-67667926D01*
X128981467Y-67744086D01*
X128981460Y-67744090D01*
X128829116Y-67869116D01*
X128704090Y-68021460D01*
X128704086Y-68021467D01*
X128611188Y-68195266D01*
X128553975Y-68383870D01*
X128534659Y-68580000D01*
X128553975Y-68776129D01*
X128611188Y-68964733D01*
X128704086Y-69138532D01*
X128704090Y-69138539D01*
X128829116Y-69290883D01*
X128981460Y-69415909D01*
X128981467Y-69415913D01*
X129155266Y-69508811D01*
X129155269Y-69508811D01*
X129155273Y-69508814D01*
X129343868Y-69566024D01*
X129540000Y-69585341D01*
X129736132Y-69566024D01*
X129924727Y-69508814D01*
X130098538Y-69415910D01*
X130250883Y-69290883D01*
X130375910Y-69138538D01*
X130468814Y-68964727D01*
X130526024Y-68776132D01*
X130545341Y-68580000D01*
X130526024Y-68383868D01*
X130468814Y-68195273D01*
X130468811Y-68195269D01*
X130468811Y-68195266D01*
X130375913Y-68021467D01*
X130375909Y-68021460D01*
X130250883Y-67869116D01*
X130098539Y-67744090D01*
X130098532Y-67744086D01*
X129956047Y-67667926D01*
X129906203Y-67618964D01*
X129890500Y-67558568D01*
X129890500Y-63499999D01*
X141134785Y-63499999D01*
X141134785Y-63500000D01*
X141153602Y-63703082D01*
X141209417Y-63899247D01*
X141209422Y-63899260D01*
X141300327Y-64081821D01*
X141423237Y-64244581D01*
X141573958Y-64381980D01*
X141573960Y-64381982D01*
X141648652Y-64428229D01*
X141747363Y-64489348D01*
X141937544Y-64563024D01*
X142138024Y-64600500D01*
X142138026Y-64600500D01*
X142341974Y-64600500D01*
X142341976Y-64600500D01*
X142542456Y-64563024D01*
X142732637Y-64489348D01*
X142906041Y-64381981D01*
X143034122Y-64265219D01*
X143056762Y-64244581D01*
X143056764Y-64244579D01*
X143179673Y-64081821D01*
X143270582Y-63899250D01*
X143326397Y-63703083D01*
X143345215Y-63500000D01*
X143345215Y-63499999D01*
X143674785Y-63499999D01*
X143674785Y-63500000D01*
X143693602Y-63703082D01*
X143749417Y-63899247D01*
X143749422Y-63899260D01*
X143840327Y-64081821D01*
X143963237Y-64244581D01*
X144113958Y-64381980D01*
X144113960Y-64381982D01*
X144188652Y-64428229D01*
X144287363Y-64489348D01*
X144477544Y-64563024D01*
X144678024Y-64600500D01*
X144678026Y-64600500D01*
X144881974Y-64600500D01*
X144881976Y-64600500D01*
X145082456Y-64563024D01*
X145272637Y-64489348D01*
X145446041Y-64381981D01*
X145574122Y-64265219D01*
X145596762Y-64244581D01*
X145596764Y-64244579D01*
X145719673Y-64081821D01*
X145810582Y-63899250D01*
X145866397Y-63703083D01*
X145885215Y-63500000D01*
X145885215Y-63499999D01*
X146214785Y-63499999D01*
X146214785Y-63500000D01*
X146233602Y-63703082D01*
X146289417Y-63899247D01*
X146289422Y-63899260D01*
X146380327Y-64081821D01*
X146503237Y-64244581D01*
X146653958Y-64381980D01*
X146653960Y-64381982D01*
X146728652Y-64428229D01*
X146827363Y-64489348D01*
X147017544Y-64563024D01*
X147218024Y-64600500D01*
X147218026Y-64600500D01*
X147421974Y-64600500D01*
X147421976Y-64600500D01*
X147622456Y-64563024D01*
X147812637Y-64489348D01*
X147986041Y-64381981D01*
X148114122Y-64265219D01*
X148136762Y-64244581D01*
X148136764Y-64244579D01*
X148259673Y-64081821D01*
X148350582Y-63899250D01*
X148406397Y-63703083D01*
X148425215Y-63500000D01*
X148425215Y-63499999D01*
X148754785Y-63499999D01*
X148754785Y-63500000D01*
X148773602Y-63703082D01*
X148829417Y-63899247D01*
X148829422Y-63899260D01*
X148920327Y-64081821D01*
X149043237Y-64244581D01*
X149193958Y-64381980D01*
X149193960Y-64381982D01*
X149268652Y-64428229D01*
X149367363Y-64489348D01*
X149557544Y-64563024D01*
X149758024Y-64600500D01*
X149758026Y-64600500D01*
X149961974Y-64600500D01*
X149961976Y-64600500D01*
X150162456Y-64563024D01*
X150352637Y-64489348D01*
X150526041Y-64381981D01*
X150654122Y-64265219D01*
X150676762Y-64244581D01*
X150676764Y-64244579D01*
X150799673Y-64081821D01*
X150890582Y-63899250D01*
X150946397Y-63703083D01*
X150965215Y-63500000D01*
X150965215Y-63499999D01*
X151294785Y-63499999D01*
X151294785Y-63500000D01*
X151313602Y-63703082D01*
X151369417Y-63899247D01*
X151369422Y-63899260D01*
X151460327Y-64081821D01*
X151583237Y-64244581D01*
X151733958Y-64381980D01*
X151733960Y-64381982D01*
X151808652Y-64428229D01*
X151907363Y-64489348D01*
X152097544Y-64563024D01*
X152298024Y-64600500D01*
X152298026Y-64600500D01*
X152501974Y-64600500D01*
X152501976Y-64600500D01*
X152702456Y-64563024D01*
X152892637Y-64489348D01*
X153066041Y-64381981D01*
X153194122Y-64265219D01*
X153216762Y-64244581D01*
X153216764Y-64244579D01*
X153339673Y-64081821D01*
X153430582Y-63899250D01*
X153486397Y-63703083D01*
X153505215Y-63500000D01*
X153505215Y-63499999D01*
X153834785Y-63499999D01*
X153834785Y-63500000D01*
X153853602Y-63703082D01*
X153909417Y-63899247D01*
X153909422Y-63899260D01*
X154000327Y-64081821D01*
X154123237Y-64244581D01*
X154273958Y-64381980D01*
X154273960Y-64381982D01*
X154348652Y-64428229D01*
X154447363Y-64489348D01*
X154637544Y-64563024D01*
X154838024Y-64600500D01*
X154838026Y-64600500D01*
X155041974Y-64600500D01*
X155041976Y-64600500D01*
X155242456Y-64563024D01*
X155432637Y-64489348D01*
X155606041Y-64381981D01*
X155734122Y-64265219D01*
X155756762Y-64244581D01*
X155756764Y-64244579D01*
X155879673Y-64081821D01*
X155970582Y-63899250D01*
X156026397Y-63703083D01*
X156045215Y-63500000D01*
X156045215Y-63499999D01*
X156374785Y-63499999D01*
X156374785Y-63500000D01*
X156393602Y-63703082D01*
X156449417Y-63899247D01*
X156449422Y-63899260D01*
X156540327Y-64081821D01*
X156663237Y-64244581D01*
X156813958Y-64381980D01*
X156813960Y-64381982D01*
X156888652Y-64428229D01*
X156987363Y-64489348D01*
X157177544Y-64563024D01*
X157378024Y-64600500D01*
X157378026Y-64600500D01*
X157581974Y-64600500D01*
X157581976Y-64600500D01*
X157782456Y-64563024D01*
X157972637Y-64489348D01*
X158146041Y-64381981D01*
X158274122Y-64265219D01*
X158296762Y-64244581D01*
X158296764Y-64244579D01*
X158419673Y-64081821D01*
X158510582Y-63899250D01*
X158566397Y-63703083D01*
X158585215Y-63500000D01*
X158566397Y-63296917D01*
X158510582Y-63100750D01*
X158508238Y-63096043D01*
X158431265Y-62941460D01*
X158419673Y-62918179D01*
X158296764Y-62755421D01*
X158296762Y-62755418D01*
X158146041Y-62618019D01*
X158146039Y-62618017D01*
X157972642Y-62510655D01*
X157972635Y-62510651D01*
X157844810Y-62461132D01*
X157782456Y-62436976D01*
X157581976Y-62399500D01*
X157378024Y-62399500D01*
X157177544Y-62436976D01*
X157177541Y-62436976D01*
X157177541Y-62436977D01*
X156987364Y-62510651D01*
X156987357Y-62510655D01*
X156813960Y-62618017D01*
X156813958Y-62618019D01*
X156663237Y-62755418D01*
X156540327Y-62918178D01*
X156449422Y-63100739D01*
X156449417Y-63100752D01*
X156393602Y-63296917D01*
X156374785Y-63499999D01*
X156045215Y-63499999D01*
X156026397Y-63296917D01*
X155970582Y-63100750D01*
X155968238Y-63096043D01*
X155891265Y-62941460D01*
X155879673Y-62918179D01*
X155756764Y-62755421D01*
X155756762Y-62755418D01*
X155606041Y-62618019D01*
X155606039Y-62618017D01*
X155432642Y-62510655D01*
X155432635Y-62510651D01*
X155304810Y-62461132D01*
X155242456Y-62436976D01*
X155041976Y-62399500D01*
X154838024Y-62399500D01*
X154637544Y-62436976D01*
X154637541Y-62436976D01*
X154637541Y-62436977D01*
X154447364Y-62510651D01*
X154447357Y-62510655D01*
X154273960Y-62618017D01*
X154273958Y-62618019D01*
X154123237Y-62755418D01*
X154000327Y-62918178D01*
X153909422Y-63100739D01*
X153909417Y-63100752D01*
X153853602Y-63296917D01*
X153834785Y-63499999D01*
X153505215Y-63499999D01*
X153486397Y-63296917D01*
X153430582Y-63100750D01*
X153428238Y-63096043D01*
X153351265Y-62941460D01*
X153339673Y-62918179D01*
X153216764Y-62755421D01*
X153216762Y-62755418D01*
X153066041Y-62618019D01*
X153066039Y-62618017D01*
X152892642Y-62510655D01*
X152892635Y-62510651D01*
X152764810Y-62461132D01*
X152702456Y-62436976D01*
X152501976Y-62399500D01*
X152298024Y-62399500D01*
X152097544Y-62436976D01*
X152097541Y-62436976D01*
X152097541Y-62436977D01*
X151907364Y-62510651D01*
X151907357Y-62510655D01*
X151733960Y-62618017D01*
X151733958Y-62618019D01*
X151583237Y-62755418D01*
X151460327Y-62918178D01*
X151369422Y-63100739D01*
X151369417Y-63100752D01*
X151313602Y-63296917D01*
X151294785Y-63499999D01*
X150965215Y-63499999D01*
X150946397Y-63296917D01*
X150890582Y-63100750D01*
X150888238Y-63096043D01*
X150811265Y-62941460D01*
X150799673Y-62918179D01*
X150676764Y-62755421D01*
X150676762Y-62755418D01*
X150526041Y-62618019D01*
X150526039Y-62618017D01*
X150352642Y-62510655D01*
X150352635Y-62510651D01*
X150224810Y-62461132D01*
X150162456Y-62436976D01*
X149961976Y-62399500D01*
X149758024Y-62399500D01*
X149557544Y-62436976D01*
X149557541Y-62436976D01*
X149557541Y-62436977D01*
X149367364Y-62510651D01*
X149367357Y-62510655D01*
X149193960Y-62618017D01*
X149193958Y-62618019D01*
X149043237Y-62755418D01*
X148920327Y-62918178D01*
X148829422Y-63100739D01*
X148829417Y-63100752D01*
X148773602Y-63296917D01*
X148754785Y-63499999D01*
X148425215Y-63499999D01*
X148406397Y-63296917D01*
X148350582Y-63100750D01*
X148348238Y-63096043D01*
X148271265Y-62941460D01*
X148259673Y-62918179D01*
X148136764Y-62755421D01*
X148136762Y-62755418D01*
X147986041Y-62618019D01*
X147986039Y-62618017D01*
X147812642Y-62510655D01*
X147812635Y-62510651D01*
X147684810Y-62461132D01*
X147622456Y-62436976D01*
X147421976Y-62399500D01*
X147218024Y-62399500D01*
X147017544Y-62436976D01*
X147017541Y-62436976D01*
X147017541Y-62436977D01*
X146827364Y-62510651D01*
X146827357Y-62510655D01*
X146653960Y-62618017D01*
X146653958Y-62618019D01*
X146503237Y-62755418D01*
X146380327Y-62918178D01*
X146289422Y-63100739D01*
X146289417Y-63100752D01*
X146233602Y-63296917D01*
X146214785Y-63499999D01*
X145885215Y-63499999D01*
X145866397Y-63296917D01*
X145810582Y-63100750D01*
X145808238Y-63096043D01*
X145731265Y-62941460D01*
X145719673Y-62918179D01*
X145596764Y-62755421D01*
X145596762Y-62755418D01*
X145446041Y-62618019D01*
X145446039Y-62618017D01*
X145272642Y-62510655D01*
X145272635Y-62510651D01*
X145144810Y-62461132D01*
X145082456Y-62436976D01*
X144881976Y-62399500D01*
X144678024Y-62399500D01*
X144477544Y-62436976D01*
X144477541Y-62436976D01*
X144477541Y-62436977D01*
X144287364Y-62510651D01*
X144287357Y-62510655D01*
X144113960Y-62618017D01*
X144113958Y-62618019D01*
X143963237Y-62755418D01*
X143840327Y-62918178D01*
X143749422Y-63100739D01*
X143749417Y-63100752D01*
X143693602Y-63296917D01*
X143674785Y-63499999D01*
X143345215Y-63499999D01*
X143326397Y-63296917D01*
X143270582Y-63100750D01*
X143268238Y-63096043D01*
X143191265Y-62941460D01*
X143179673Y-62918179D01*
X143056764Y-62755421D01*
X143056762Y-62755418D01*
X142906041Y-62618019D01*
X142906039Y-62618017D01*
X142732642Y-62510655D01*
X142732635Y-62510651D01*
X142604810Y-62461132D01*
X142542456Y-62436976D01*
X142341976Y-62399500D01*
X142138024Y-62399500D01*
X141937544Y-62436976D01*
X141937541Y-62436976D01*
X141937541Y-62436977D01*
X141747364Y-62510651D01*
X141747357Y-62510655D01*
X141573960Y-62618017D01*
X141573958Y-62618019D01*
X141423237Y-62755418D01*
X141300327Y-62918178D01*
X141209422Y-63100739D01*
X141209417Y-63100752D01*
X141153602Y-63296917D01*
X141134785Y-63499999D01*
X129890500Y-63499999D01*
X129890500Y-61393858D01*
X129890500Y-61393856D01*
X129866614Y-61304712D01*
X129820470Y-61224788D01*
X129555681Y-60959999D01*
X141134785Y-60959999D01*
X141134785Y-60960000D01*
X141153602Y-61163082D01*
X141209417Y-61359247D01*
X141209422Y-61359260D01*
X141300327Y-61541821D01*
X141423237Y-61704581D01*
X141573958Y-61841980D01*
X141573960Y-61841982D01*
X141649592Y-61888811D01*
X141747363Y-61949348D01*
X141937544Y-62023024D01*
X142138024Y-62060500D01*
X142138026Y-62060500D01*
X142341974Y-62060500D01*
X142341976Y-62060500D01*
X142542456Y-62023024D01*
X142732637Y-61949348D01*
X142906041Y-61841981D01*
X143056764Y-61704579D01*
X143179673Y-61541821D01*
X143270582Y-61359250D01*
X143326397Y-61163083D01*
X143345215Y-60960000D01*
X143345215Y-60959999D01*
X156374785Y-60959999D01*
X156374785Y-60960000D01*
X156393602Y-61163082D01*
X156449417Y-61359247D01*
X156449422Y-61359260D01*
X156540327Y-61541821D01*
X156663237Y-61704581D01*
X156813958Y-61841980D01*
X156813960Y-61841982D01*
X156889592Y-61888811D01*
X156987363Y-61949348D01*
X157177544Y-62023024D01*
X157378024Y-62060500D01*
X157378026Y-62060500D01*
X157581974Y-62060500D01*
X157581976Y-62060500D01*
X157782456Y-62023024D01*
X157972637Y-61949348D01*
X158146041Y-61841981D01*
X158296764Y-61704579D01*
X158419673Y-61541821D01*
X158510582Y-61359250D01*
X158566397Y-61163083D01*
X158585215Y-60960000D01*
X158566397Y-60756917D01*
X158510582Y-60560750D01*
X158419673Y-60378179D01*
X158296764Y-60215421D01*
X158296762Y-60215418D01*
X158146041Y-60078019D01*
X158146039Y-60078017D01*
X157972642Y-59970655D01*
X157972635Y-59970651D01*
X157877546Y-59933814D01*
X157782456Y-59896976D01*
X157581976Y-59859500D01*
X157378024Y-59859500D01*
X157177544Y-59896976D01*
X157177541Y-59896976D01*
X157177541Y-59896977D01*
X156987364Y-59970651D01*
X156987357Y-59970655D01*
X156813960Y-60078017D01*
X156813958Y-60078019D01*
X156663237Y-60215418D01*
X156540327Y-60378178D01*
X156449422Y-60560739D01*
X156449417Y-60560752D01*
X156393602Y-60756917D01*
X156374785Y-60959999D01*
X143345215Y-60959999D01*
X143326397Y-60756917D01*
X143270582Y-60560750D01*
X143179673Y-60378179D01*
X143056764Y-60215421D01*
X143056762Y-60215418D01*
X142906041Y-60078019D01*
X142906039Y-60078017D01*
X142732642Y-59970655D01*
X142732635Y-59970651D01*
X142637546Y-59933814D01*
X142542456Y-59896976D01*
X142341976Y-59859500D01*
X142138024Y-59859500D01*
X141937544Y-59896976D01*
X141937541Y-59896976D01*
X141937541Y-59896977D01*
X141747364Y-59970651D01*
X141747357Y-59970655D01*
X141573960Y-60078017D01*
X141573958Y-60078019D01*
X141423237Y-60215418D01*
X141300327Y-60378178D01*
X141209422Y-60560739D01*
X141209417Y-60560752D01*
X141153602Y-60756917D01*
X141134785Y-60959999D01*
X129555681Y-60959999D01*
X128015212Y-59419530D01*
X128015211Y-59419529D01*
X128015208Y-59419527D01*
X127935290Y-59373387D01*
X127935289Y-59373386D01*
X127935288Y-59373386D01*
X127846144Y-59349500D01*
X127846143Y-59349500D01*
X125251055Y-59349500D01*
X125184016Y-59329815D01*
X125138261Y-59277011D01*
X125128317Y-59207853D01*
X125157342Y-59144297D01*
X125166634Y-59135249D01*
X125166576Y-59135191D01*
X125170881Y-59130885D01*
X125295909Y-58978539D01*
X125295913Y-58978532D01*
X125388811Y-58804733D01*
X125388811Y-58804732D01*
X125388814Y-58804727D01*
X125446024Y-58616132D01*
X125465341Y-58420000D01*
X128534659Y-58420000D01*
X128553975Y-58616129D01*
X128567901Y-58662035D01*
X128610800Y-58803456D01*
X128611188Y-58804733D01*
X128704086Y-58978532D01*
X128704090Y-58978539D01*
X128829116Y-59130883D01*
X128981460Y-59255909D01*
X128981467Y-59255913D01*
X129155266Y-59348811D01*
X129155269Y-59348811D01*
X129155273Y-59348814D01*
X129343868Y-59406024D01*
X129540000Y-59425341D01*
X129736132Y-59406024D01*
X129924727Y-59348814D01*
X130098538Y-59255910D01*
X130250883Y-59130883D01*
X130375910Y-58978538D01*
X130468814Y-58804727D01*
X130526024Y-58616132D01*
X130545341Y-58420000D01*
X130545341Y-58419999D01*
X141134785Y-58419999D01*
X141134785Y-58420000D01*
X141153602Y-58623082D01*
X141209417Y-58819247D01*
X141209422Y-58819260D01*
X141300327Y-59001821D01*
X141423237Y-59164581D01*
X141573958Y-59301980D01*
X141573960Y-59301982D01*
X141647833Y-59347722D01*
X141747363Y-59409348D01*
X141937544Y-59483024D01*
X142138024Y-59520500D01*
X142138026Y-59520500D01*
X142341974Y-59520500D01*
X142341976Y-59520500D01*
X142542456Y-59483024D01*
X142732637Y-59409348D01*
X142906041Y-59301981D01*
X143056764Y-59164579D01*
X143179673Y-59001821D01*
X143270582Y-58819250D01*
X143326397Y-58623083D01*
X143345215Y-58420000D01*
X143345215Y-58419999D01*
X156374785Y-58419999D01*
X156374785Y-58420000D01*
X156393602Y-58623082D01*
X156449417Y-58819247D01*
X156449422Y-58819260D01*
X156540327Y-59001821D01*
X156663237Y-59164581D01*
X156813958Y-59301980D01*
X156813960Y-59301982D01*
X156887833Y-59347722D01*
X156987363Y-59409348D01*
X157177544Y-59483024D01*
X157378024Y-59520500D01*
X157378026Y-59520500D01*
X157581974Y-59520500D01*
X157581976Y-59520500D01*
X157782456Y-59483024D01*
X157972637Y-59409348D01*
X158146041Y-59301981D01*
X158296764Y-59164579D01*
X158419673Y-59001821D01*
X158510582Y-58819250D01*
X158566397Y-58623083D01*
X158585215Y-58420000D01*
X158566397Y-58216917D01*
X158510582Y-58020750D01*
X158419673Y-57838179D01*
X158296764Y-57675421D01*
X158296762Y-57675418D01*
X158146041Y-57538019D01*
X158146039Y-57538017D01*
X157972642Y-57430655D01*
X157972635Y-57430651D01*
X157877546Y-57393814D01*
X157782456Y-57356976D01*
X157581976Y-57319500D01*
X157378024Y-57319500D01*
X157177544Y-57356976D01*
X157177541Y-57356976D01*
X157177541Y-57356977D01*
X156987364Y-57430651D01*
X156987357Y-57430655D01*
X156813960Y-57538017D01*
X156813958Y-57538019D01*
X156663237Y-57675418D01*
X156540327Y-57838178D01*
X156449422Y-58020739D01*
X156449417Y-58020752D01*
X156393602Y-58216917D01*
X156374785Y-58419999D01*
X143345215Y-58419999D01*
X143326397Y-58216917D01*
X143270582Y-58020750D01*
X143179673Y-57838179D01*
X143056764Y-57675421D01*
X143056762Y-57675418D01*
X142906041Y-57538019D01*
X142906039Y-57538017D01*
X142732642Y-57430655D01*
X142732635Y-57430651D01*
X142637546Y-57393814D01*
X142542456Y-57356976D01*
X142341976Y-57319500D01*
X142138024Y-57319500D01*
X141937544Y-57356976D01*
X141937541Y-57356976D01*
X141937541Y-57356977D01*
X141747364Y-57430651D01*
X141747357Y-57430655D01*
X141573960Y-57538017D01*
X141573958Y-57538019D01*
X141423237Y-57675418D01*
X141300327Y-57838178D01*
X141209422Y-58020739D01*
X141209417Y-58020752D01*
X141153602Y-58216917D01*
X141134785Y-58419999D01*
X130545341Y-58419999D01*
X130526024Y-58223868D01*
X130468814Y-58035273D01*
X130468811Y-58035269D01*
X130468811Y-58035266D01*
X130375913Y-57861467D01*
X130375909Y-57861460D01*
X130250883Y-57709116D01*
X130098539Y-57584090D01*
X130098532Y-57584086D01*
X129924733Y-57491188D01*
X129924727Y-57491186D01*
X129736132Y-57433976D01*
X129736129Y-57433975D01*
X129540000Y-57414659D01*
X129343870Y-57433975D01*
X129155266Y-57491188D01*
X128981467Y-57584086D01*
X128981460Y-57584090D01*
X128829116Y-57709116D01*
X128704090Y-57861460D01*
X128704086Y-57861467D01*
X128611188Y-58035266D01*
X128553975Y-58223870D01*
X128534659Y-58420000D01*
X125465341Y-58420000D01*
X125446024Y-58223868D01*
X125388814Y-58035273D01*
X125388811Y-58035269D01*
X125388811Y-58035266D01*
X125295913Y-57861467D01*
X125295909Y-57861460D01*
X125170883Y-57709116D01*
X125018539Y-57584090D01*
X125018532Y-57584086D01*
X124844733Y-57491188D01*
X124844727Y-57491186D01*
X124656132Y-57433976D01*
X124656129Y-57433975D01*
X124460000Y-57414659D01*
X124263870Y-57433975D01*
X124075266Y-57491188D01*
X123901467Y-57584086D01*
X123901460Y-57584090D01*
X123749116Y-57709116D01*
X123624090Y-57861460D01*
X123624086Y-57861467D01*
X123531188Y-58035266D01*
X123473975Y-58223870D01*
X123454659Y-58420000D01*
X123473975Y-58616129D01*
X123487901Y-58662035D01*
X123530800Y-58803456D01*
X123531188Y-58804733D01*
X123624086Y-58978532D01*
X123624090Y-58978539D01*
X123749118Y-59130885D01*
X123753424Y-59135191D01*
X123752212Y-59136402D01*
X123786946Y-59187397D01*
X123788814Y-59257241D01*
X123752624Y-59317008D01*
X123689867Y-59347722D01*
X123668945Y-59349500D01*
X122696544Y-59349500D01*
X122629505Y-59329815D01*
X122608863Y-59313181D01*
X122186819Y-58891137D01*
X122153334Y-58829814D01*
X122150500Y-58803456D01*
X122150500Y-55880000D01*
X123454659Y-55880000D01*
X123473975Y-56076129D01*
X123531188Y-56264733D01*
X123624086Y-56438532D01*
X123624090Y-56438539D01*
X123749116Y-56590883D01*
X123901460Y-56715909D01*
X123901467Y-56715913D01*
X124075266Y-56808811D01*
X124075269Y-56808811D01*
X124075273Y-56808814D01*
X124263868Y-56866024D01*
X124460000Y-56885341D01*
X124656132Y-56866024D01*
X124844727Y-56808814D01*
X125018538Y-56715910D01*
X125170883Y-56590883D01*
X125295910Y-56438538D01*
X125388814Y-56264727D01*
X125446024Y-56076132D01*
X125465341Y-55880000D01*
X125465341Y-55879999D01*
X141134785Y-55879999D01*
X141134785Y-55880000D01*
X141153602Y-56083082D01*
X141209417Y-56279247D01*
X141209422Y-56279260D01*
X141300327Y-56461821D01*
X141423237Y-56624581D01*
X141573958Y-56761980D01*
X141573960Y-56761982D01*
X141649592Y-56808811D01*
X141747363Y-56869348D01*
X141937544Y-56943024D01*
X142138024Y-56980500D01*
X142138026Y-56980500D01*
X142341974Y-56980500D01*
X142341976Y-56980500D01*
X142542456Y-56943024D01*
X142732637Y-56869348D01*
X142906041Y-56761981D01*
X143056764Y-56624579D01*
X143179673Y-56461821D01*
X143270582Y-56279250D01*
X143326397Y-56083083D01*
X143345215Y-55880000D01*
X143345215Y-55879999D01*
X156374785Y-55879999D01*
X156374785Y-55880000D01*
X156393602Y-56083082D01*
X156449417Y-56279247D01*
X156449422Y-56279260D01*
X156540327Y-56461821D01*
X156663237Y-56624581D01*
X156813958Y-56761980D01*
X156813960Y-56761982D01*
X156889592Y-56808811D01*
X156987363Y-56869348D01*
X157177544Y-56943024D01*
X157378024Y-56980500D01*
X157378026Y-56980500D01*
X157581974Y-56980500D01*
X157581976Y-56980500D01*
X157782456Y-56943024D01*
X157972637Y-56869348D01*
X158146041Y-56761981D01*
X158296764Y-56624579D01*
X158419673Y-56461821D01*
X158510582Y-56279250D01*
X158566397Y-56083083D01*
X158585215Y-55880000D01*
X158566397Y-55676917D01*
X158510582Y-55480750D01*
X158419673Y-55298179D01*
X158296764Y-55135421D01*
X158296762Y-55135418D01*
X158146041Y-54998019D01*
X158146039Y-54998017D01*
X157972642Y-54890655D01*
X157972635Y-54890651D01*
X157877546Y-54853814D01*
X157782456Y-54816976D01*
X157581976Y-54779500D01*
X157378024Y-54779500D01*
X157177544Y-54816976D01*
X157177541Y-54816976D01*
X157177541Y-54816977D01*
X156987364Y-54890651D01*
X156987357Y-54890655D01*
X156813960Y-54998017D01*
X156813958Y-54998019D01*
X156663237Y-55135418D01*
X156540327Y-55298178D01*
X156449422Y-55480739D01*
X156449417Y-55480752D01*
X156393602Y-55676917D01*
X156374785Y-55879999D01*
X143345215Y-55879999D01*
X143326397Y-55676917D01*
X143270582Y-55480750D01*
X143179673Y-55298179D01*
X143056764Y-55135421D01*
X143056762Y-55135418D01*
X142906041Y-54998019D01*
X142906039Y-54998017D01*
X142732642Y-54890655D01*
X142732635Y-54890651D01*
X142637546Y-54853814D01*
X142542456Y-54816976D01*
X142341976Y-54779500D01*
X142138024Y-54779500D01*
X141937544Y-54816976D01*
X141937541Y-54816976D01*
X141937541Y-54816977D01*
X141747364Y-54890651D01*
X141747357Y-54890655D01*
X141573960Y-54998017D01*
X141573958Y-54998019D01*
X141423237Y-55135418D01*
X141300327Y-55298178D01*
X141209422Y-55480739D01*
X141209417Y-55480752D01*
X141153602Y-55676917D01*
X141134785Y-55879999D01*
X125465341Y-55879999D01*
X125446024Y-55683868D01*
X125388814Y-55495273D01*
X125388811Y-55495269D01*
X125388811Y-55495266D01*
X125295913Y-55321467D01*
X125295909Y-55321460D01*
X125170883Y-55169116D01*
X125018539Y-55044090D01*
X125018532Y-55044086D01*
X124844733Y-54951188D01*
X124844727Y-54951186D01*
X124656132Y-54893976D01*
X124656129Y-54893975D01*
X124460000Y-54874659D01*
X124263870Y-54893975D01*
X124075266Y-54951188D01*
X123901467Y-55044086D01*
X123901460Y-55044090D01*
X123749116Y-55169116D01*
X123624090Y-55321460D01*
X123624086Y-55321467D01*
X123531188Y-55495266D01*
X123473975Y-55683870D01*
X123454659Y-55880000D01*
X122150500Y-55880000D01*
X122150500Y-53089999D01*
X123490839Y-53089999D01*
X123490840Y-53090000D01*
X124144314Y-53090000D01*
X124139920Y-53094394D01*
X124087259Y-53185606D01*
X124060000Y-53287339D01*
X124060000Y-53392661D01*
X124087259Y-53494394D01*
X124139920Y-53585606D01*
X124144314Y-53590000D01*
X123490840Y-53590000D01*
X123531652Y-53724541D01*
X123624503Y-53898253D01*
X123624507Y-53898260D01*
X123749471Y-54050528D01*
X123901739Y-54175491D01*
X124075465Y-54268349D01*
X124210000Y-54309159D01*
X124210000Y-53655686D01*
X124214394Y-53660080D01*
X124305606Y-53712741D01*
X124407339Y-53740000D01*
X124512661Y-53740000D01*
X124614394Y-53712741D01*
X124705606Y-53660080D01*
X124710000Y-53655686D01*
X124710000Y-54309159D01*
X124844534Y-54268349D01*
X125018260Y-54175491D01*
X125170528Y-54050528D01*
X125295492Y-53898260D01*
X125295496Y-53898253D01*
X125388347Y-53724541D01*
X125429160Y-53590000D01*
X124775686Y-53590000D01*
X124780080Y-53585606D01*
X124832741Y-53494394D01*
X124860000Y-53392661D01*
X124860000Y-53339999D01*
X141134785Y-53339999D01*
X141134785Y-53340000D01*
X141153602Y-53543082D01*
X141209417Y-53739247D01*
X141209422Y-53739260D01*
X141300327Y-53921821D01*
X141423237Y-54084581D01*
X141573958Y-54221980D01*
X141573960Y-54221982D01*
X141648846Y-54268349D01*
X141747363Y-54329348D01*
X141937544Y-54403024D01*
X142138024Y-54440500D01*
X142138026Y-54440500D01*
X142341974Y-54440500D01*
X142341976Y-54440500D01*
X142542456Y-54403024D01*
X142732637Y-54329348D01*
X142906041Y-54221981D01*
X143056764Y-54084579D01*
X143179673Y-53921821D01*
X143270582Y-53739250D01*
X143326397Y-53543083D01*
X143345215Y-53340000D01*
X143345215Y-53339999D01*
X156374785Y-53339999D01*
X156374785Y-53340000D01*
X156393602Y-53543082D01*
X156449417Y-53739247D01*
X156449422Y-53739260D01*
X156540327Y-53921821D01*
X156663237Y-54084581D01*
X156813958Y-54221980D01*
X156813960Y-54221982D01*
X156888846Y-54268349D01*
X156987363Y-54329348D01*
X157177544Y-54403024D01*
X157378024Y-54440500D01*
X157378026Y-54440500D01*
X157581974Y-54440500D01*
X157581976Y-54440500D01*
X157782456Y-54403024D01*
X157972637Y-54329348D01*
X158146041Y-54221981D01*
X158296764Y-54084579D01*
X158419673Y-53921821D01*
X158510582Y-53739250D01*
X158566397Y-53543083D01*
X158585215Y-53340000D01*
X158579115Y-53274174D01*
X158566397Y-53136917D01*
X158553048Y-53090000D01*
X158510582Y-52940750D01*
X158510159Y-52939901D01*
X158431265Y-52781460D01*
X158419673Y-52758179D01*
X158296764Y-52595421D01*
X158296762Y-52595418D01*
X158146041Y-52458019D01*
X158146039Y-52458017D01*
X157972642Y-52350655D01*
X157972635Y-52350651D01*
X157877546Y-52313814D01*
X157782456Y-52276976D01*
X157581976Y-52239500D01*
X157378024Y-52239500D01*
X157177544Y-52276976D01*
X157177541Y-52276976D01*
X157177541Y-52276977D01*
X156987364Y-52350651D01*
X156987357Y-52350655D01*
X156813960Y-52458017D01*
X156813958Y-52458019D01*
X156663237Y-52595418D01*
X156540327Y-52758178D01*
X156449422Y-52940739D01*
X156449417Y-52940752D01*
X156393602Y-53136917D01*
X156374785Y-53339999D01*
X143345215Y-53339999D01*
X143339115Y-53274174D01*
X143326397Y-53136917D01*
X143313048Y-53090000D01*
X143270582Y-52940750D01*
X143270159Y-52939901D01*
X143191265Y-52781460D01*
X143179673Y-52758179D01*
X143056764Y-52595421D01*
X143056762Y-52595418D01*
X142906041Y-52458019D01*
X142906039Y-52458017D01*
X142732642Y-52350655D01*
X142732635Y-52350651D01*
X142637546Y-52313814D01*
X142542456Y-52276976D01*
X142341976Y-52239500D01*
X142138024Y-52239500D01*
X141937544Y-52276976D01*
X141937541Y-52276976D01*
X141937541Y-52276977D01*
X141747364Y-52350651D01*
X141747357Y-52350655D01*
X141573960Y-52458017D01*
X141573958Y-52458019D01*
X141423237Y-52595418D01*
X141300327Y-52758178D01*
X141209422Y-52940739D01*
X141209417Y-52940752D01*
X141153602Y-53136917D01*
X141134785Y-53339999D01*
X124860000Y-53339999D01*
X124860000Y-53287339D01*
X124832741Y-53185606D01*
X124780080Y-53094394D01*
X124775686Y-53090000D01*
X125429160Y-53090000D01*
X125429160Y-53089999D01*
X125388347Y-52955458D01*
X125295496Y-52781746D01*
X125295492Y-52781739D01*
X125170528Y-52629471D01*
X125018260Y-52504507D01*
X125018253Y-52504503D01*
X124844541Y-52411652D01*
X124710000Y-52370839D01*
X124710000Y-53024314D01*
X124705606Y-53019920D01*
X124614394Y-52967259D01*
X124512661Y-52940000D01*
X124407339Y-52940000D01*
X124305606Y-52967259D01*
X124214394Y-53019920D01*
X124210000Y-53024314D01*
X124210000Y-52370839D01*
X124209999Y-52370839D01*
X124075458Y-52411652D01*
X123901746Y-52504503D01*
X123901739Y-52504507D01*
X123749471Y-52629471D01*
X123624507Y-52781739D01*
X123624503Y-52781746D01*
X123531652Y-52955458D01*
X123490839Y-53089999D01*
X122150500Y-53089999D01*
X122150500Y-50800000D01*
X123454659Y-50800000D01*
X123473975Y-50996129D01*
X123531188Y-51184733D01*
X123624086Y-51358532D01*
X123624090Y-51358539D01*
X123749116Y-51510883D01*
X123901460Y-51635909D01*
X123901467Y-51635913D01*
X124075266Y-51728811D01*
X124075269Y-51728811D01*
X124075273Y-51728814D01*
X124263868Y-51786024D01*
X124460000Y-51805341D01*
X124656132Y-51786024D01*
X124844727Y-51728814D01*
X125018538Y-51635910D01*
X125170883Y-51510883D01*
X125295910Y-51358538D01*
X125388814Y-51184727D01*
X125446024Y-50996132D01*
X125465341Y-50800000D01*
X125465341Y-50799999D01*
X141134785Y-50799999D01*
X141134785Y-50800000D01*
X141153602Y-51003082D01*
X141209417Y-51199247D01*
X141209422Y-51199260D01*
X141300327Y-51381821D01*
X141423237Y-51544581D01*
X141573958Y-51681980D01*
X141573960Y-51681982D01*
X141649592Y-51728811D01*
X141747363Y-51789348D01*
X141937544Y-51863024D01*
X142138024Y-51900500D01*
X142138026Y-51900500D01*
X142341974Y-51900500D01*
X142341976Y-51900500D01*
X142542456Y-51863024D01*
X142732637Y-51789348D01*
X142906041Y-51681981D01*
X143034122Y-51565219D01*
X143056762Y-51544581D01*
X143056764Y-51544579D01*
X143179673Y-51381821D01*
X143270582Y-51199250D01*
X143326397Y-51003083D01*
X143345215Y-50800000D01*
X143345215Y-50799999D01*
X156374785Y-50799999D01*
X156374785Y-50800000D01*
X156393602Y-51003082D01*
X156449417Y-51199247D01*
X156449422Y-51199260D01*
X156540327Y-51381821D01*
X156663237Y-51544581D01*
X156813958Y-51681980D01*
X156813960Y-51681982D01*
X156889592Y-51728811D01*
X156987363Y-51789348D01*
X157177544Y-51863024D01*
X157378024Y-51900500D01*
X157378026Y-51900500D01*
X157581974Y-51900500D01*
X157581976Y-51900500D01*
X157782456Y-51863024D01*
X157972637Y-51789348D01*
X158146041Y-51681981D01*
X158274122Y-51565219D01*
X158296762Y-51544581D01*
X158296764Y-51544579D01*
X158419673Y-51381821D01*
X158510582Y-51199250D01*
X158566397Y-51003083D01*
X158585215Y-50800000D01*
X158566397Y-50596917D01*
X158510582Y-50400750D01*
X158508238Y-50396043D01*
X158431265Y-50241460D01*
X158419673Y-50218179D01*
X158296764Y-50055421D01*
X158296762Y-50055418D01*
X158146041Y-49918019D01*
X158146039Y-49918017D01*
X157972642Y-49810655D01*
X157972635Y-49810651D01*
X157854018Y-49764699D01*
X157782456Y-49736976D01*
X157581976Y-49699500D01*
X157378024Y-49699500D01*
X157177544Y-49736976D01*
X157177541Y-49736976D01*
X157177541Y-49736977D01*
X156987364Y-49810651D01*
X156987357Y-49810655D01*
X156813960Y-49918017D01*
X156813958Y-49918019D01*
X156663237Y-50055418D01*
X156540327Y-50218178D01*
X156449422Y-50400739D01*
X156449417Y-50400752D01*
X156393602Y-50596917D01*
X156374785Y-50799999D01*
X143345215Y-50799999D01*
X143326397Y-50596917D01*
X143270582Y-50400750D01*
X143268238Y-50396043D01*
X143191265Y-50241460D01*
X143179673Y-50218179D01*
X143056764Y-50055421D01*
X143056762Y-50055418D01*
X142906041Y-49918019D01*
X142906039Y-49918017D01*
X142732642Y-49810655D01*
X142732635Y-49810651D01*
X142614018Y-49764699D01*
X142542456Y-49736976D01*
X142341976Y-49699500D01*
X142138024Y-49699500D01*
X141937544Y-49736976D01*
X141937541Y-49736976D01*
X141937541Y-49736977D01*
X141747364Y-49810651D01*
X141747357Y-49810655D01*
X141573960Y-49918017D01*
X141573958Y-49918019D01*
X141423237Y-50055418D01*
X141300327Y-50218178D01*
X141209422Y-50400739D01*
X141209417Y-50400752D01*
X141153602Y-50596917D01*
X141134785Y-50799999D01*
X125465341Y-50799999D01*
X125446024Y-50603868D01*
X125388814Y-50415273D01*
X125388811Y-50415269D01*
X125388811Y-50415266D01*
X125295913Y-50241467D01*
X125295909Y-50241460D01*
X125170883Y-50089116D01*
X125018539Y-49964090D01*
X125018532Y-49964086D01*
X124844733Y-49871188D01*
X124844727Y-49871186D01*
X124656132Y-49813976D01*
X124656129Y-49813975D01*
X124460000Y-49794659D01*
X124263870Y-49813975D01*
X124075266Y-49871188D01*
X123901467Y-49964086D01*
X123901460Y-49964090D01*
X123749116Y-50089116D01*
X123624090Y-50241460D01*
X123624086Y-50241467D01*
X123531188Y-50415266D01*
X123473975Y-50603870D01*
X123454659Y-50800000D01*
X122150500Y-50800000D01*
X122150500Y-48260000D01*
X123454659Y-48260000D01*
X123473975Y-48456129D01*
X123531188Y-48644733D01*
X123624086Y-48818532D01*
X123624090Y-48818539D01*
X123749116Y-48970883D01*
X123901460Y-49095909D01*
X123901467Y-49095913D01*
X124075266Y-49188811D01*
X124075269Y-49188811D01*
X124075273Y-49188814D01*
X124263868Y-49246024D01*
X124460000Y-49265341D01*
X124656132Y-49246024D01*
X124844727Y-49188814D01*
X125018538Y-49095910D01*
X125170883Y-48970883D01*
X125295910Y-48818538D01*
X125388814Y-48644727D01*
X125446024Y-48456132D01*
X125465341Y-48260000D01*
X125446024Y-48063868D01*
X125388814Y-47875273D01*
X125388811Y-47875269D01*
X125388811Y-47875266D01*
X125295913Y-47701467D01*
X125295909Y-47701460D01*
X125170883Y-47549116D01*
X125018539Y-47424090D01*
X125018532Y-47424086D01*
X124973933Y-47400247D01*
X136159500Y-47400247D01*
X136159500Y-49039752D01*
X136171131Y-49098229D01*
X136171132Y-49098230D01*
X136215447Y-49164552D01*
X136281769Y-49208867D01*
X136281770Y-49208868D01*
X136340247Y-49220499D01*
X136340250Y-49220500D01*
X136340252Y-49220500D01*
X137979750Y-49220500D01*
X137979751Y-49220499D01*
X137994568Y-49217552D01*
X138038229Y-49208868D01*
X138038229Y-49208867D01*
X138038231Y-49208867D01*
X138104552Y-49164552D01*
X138148867Y-49098231D01*
X138148867Y-49098229D01*
X138148868Y-49098229D01*
X138156411Y-49060309D01*
X138188796Y-48998398D01*
X138249512Y-48963824D01*
X138278028Y-48960500D01*
X141328301Y-48960500D01*
X141395340Y-48980185D01*
X141419937Y-49000961D01*
X141423234Y-49004578D01*
X141573958Y-49141980D01*
X141573960Y-49141982D01*
X141610412Y-49164552D01*
X141747363Y-49249348D01*
X141937544Y-49323024D01*
X142138024Y-49360500D01*
X142138026Y-49360500D01*
X142341974Y-49360500D01*
X142341976Y-49360500D01*
X142542456Y-49323024D01*
X142732637Y-49249348D01*
X142906041Y-49141981D01*
X143034122Y-49025219D01*
X143056762Y-49004581D01*
X143056764Y-49004579D01*
X143179673Y-48841821D01*
X143270582Y-48659250D01*
X143326397Y-48463083D01*
X143345215Y-48260000D01*
X143345215Y-48259999D01*
X156374785Y-48259999D01*
X156374785Y-48260000D01*
X156393602Y-48463082D01*
X156449417Y-48659247D01*
X156449422Y-48659260D01*
X156540327Y-48841821D01*
X156663237Y-49004581D01*
X156813958Y-49141980D01*
X156813960Y-49141982D01*
X156850412Y-49164552D01*
X156987363Y-49249348D01*
X157177544Y-49323024D01*
X157378024Y-49360500D01*
X157378026Y-49360500D01*
X157581974Y-49360500D01*
X157581976Y-49360500D01*
X157782456Y-49323024D01*
X157972637Y-49249348D01*
X158146041Y-49141981D01*
X158274122Y-49025219D01*
X158296762Y-49004581D01*
X158296764Y-49004579D01*
X158419673Y-48841821D01*
X158510582Y-48659250D01*
X158566397Y-48463083D01*
X158585215Y-48260000D01*
X158566397Y-48056917D01*
X158510582Y-47860750D01*
X158508238Y-47856043D01*
X158431265Y-47701460D01*
X158419673Y-47678179D01*
X158322209Y-47549116D01*
X158296762Y-47515418D01*
X158146041Y-47378019D01*
X158146039Y-47378017D01*
X157972642Y-47270655D01*
X157972635Y-47270651D01*
X157854018Y-47224699D01*
X157782456Y-47196976D01*
X157581976Y-47159500D01*
X157378024Y-47159500D01*
X157177544Y-47196976D01*
X157177541Y-47196976D01*
X157177541Y-47196977D01*
X156987364Y-47270651D01*
X156987357Y-47270655D01*
X156813960Y-47378017D01*
X156813958Y-47378019D01*
X156663237Y-47515418D01*
X156540327Y-47678178D01*
X156449422Y-47860739D01*
X156449417Y-47860752D01*
X156393602Y-48056917D01*
X156374785Y-48259999D01*
X143345215Y-48259999D01*
X143326397Y-48056917D01*
X143270582Y-47860750D01*
X143268238Y-47856043D01*
X143191265Y-47701460D01*
X143179673Y-47678179D01*
X143082209Y-47549116D01*
X143056762Y-47515418D01*
X142906041Y-47378019D01*
X142906039Y-47378017D01*
X142732642Y-47270655D01*
X142732635Y-47270651D01*
X142614018Y-47224699D01*
X142542456Y-47196976D01*
X142341976Y-47159500D01*
X142138024Y-47159500D01*
X141937544Y-47196976D01*
X141937541Y-47196976D01*
X141937541Y-47196977D01*
X141747364Y-47270651D01*
X141747357Y-47270655D01*
X141573960Y-47378017D01*
X141573958Y-47378019D01*
X141423234Y-47515421D01*
X141419937Y-47519039D01*
X141360226Y-47555320D01*
X141328301Y-47559500D01*
X138284500Y-47559500D01*
X138217461Y-47539815D01*
X138171706Y-47487011D01*
X138160500Y-47435500D01*
X138160500Y-47400249D01*
X138160499Y-47400247D01*
X138148868Y-47341770D01*
X138148867Y-47341769D01*
X138104552Y-47275447D01*
X138038230Y-47231132D01*
X138038229Y-47231131D01*
X137979752Y-47219500D01*
X137979748Y-47219500D01*
X136340252Y-47219500D01*
X136340247Y-47219500D01*
X136281770Y-47231131D01*
X136281769Y-47231132D01*
X136215447Y-47275447D01*
X136171132Y-47341769D01*
X136171131Y-47341770D01*
X136159500Y-47400247D01*
X124973933Y-47400247D01*
X124844733Y-47331188D01*
X124844727Y-47331186D01*
X124656132Y-47273976D01*
X124656129Y-47273975D01*
X124460000Y-47254659D01*
X124263870Y-47273975D01*
X124075266Y-47331188D01*
X123901467Y-47424086D01*
X123901460Y-47424090D01*
X123749116Y-47549116D01*
X123624090Y-47701460D01*
X123624086Y-47701467D01*
X123531188Y-47875266D01*
X123473975Y-48063870D01*
X123454659Y-48260000D01*
X122150500Y-48260000D01*
X122150500Y-45720000D01*
X123454659Y-45720000D01*
X123473975Y-45916129D01*
X123476850Y-45925606D01*
X123531128Y-46104537D01*
X123531188Y-46104733D01*
X123624086Y-46278532D01*
X123624090Y-46278539D01*
X123749116Y-46430883D01*
X123901460Y-46555909D01*
X123901467Y-46555913D01*
X124075266Y-46648811D01*
X124075269Y-46648811D01*
X124075273Y-46648814D01*
X124263868Y-46706024D01*
X124460000Y-46725341D01*
X124656132Y-46706024D01*
X124844727Y-46648814D01*
X124845822Y-46648229D01*
X125018532Y-46555913D01*
X125018538Y-46555910D01*
X125170883Y-46430883D01*
X125295910Y-46278538D01*
X125345413Y-46185925D01*
X125388811Y-46104733D01*
X125388811Y-46104732D01*
X125388814Y-46104727D01*
X125446024Y-45916132D01*
X125465341Y-45720000D01*
X125461401Y-45680000D01*
X131075161Y-45680000D01*
X131094468Y-45876032D01*
X131151651Y-46064539D01*
X131217922Y-46188523D01*
X131217923Y-46188523D01*
X131680000Y-45726446D01*
X131680000Y-45732661D01*
X131707259Y-45834394D01*
X131759920Y-45925606D01*
X131834394Y-46000080D01*
X131925606Y-46052741D01*
X132027339Y-46080000D01*
X132033553Y-46080000D01*
X131571476Y-46542075D01*
X131695462Y-46608348D01*
X131883969Y-46665531D01*
X131883965Y-46665531D01*
X132080000Y-46684838D01*
X132276032Y-46665531D01*
X132464537Y-46608348D01*
X132588523Y-46542076D01*
X132588523Y-46542075D01*
X132126448Y-46080000D01*
X132132661Y-46080000D01*
X132234394Y-46052741D01*
X132325606Y-46000080D01*
X132400080Y-45925606D01*
X132452741Y-45834394D01*
X132480000Y-45732661D01*
X132480000Y-45726447D01*
X132942076Y-46188523D01*
X133008348Y-46064537D01*
X133065531Y-45876032D01*
X133080898Y-45720000D01*
X136155161Y-45720000D01*
X136174468Y-45916032D01*
X136231651Y-46104539D01*
X136297922Y-46228523D01*
X136760000Y-45766445D01*
X136760000Y-45772661D01*
X136787259Y-45874394D01*
X136839920Y-45965606D01*
X136914394Y-46040080D01*
X137005606Y-46092741D01*
X137107339Y-46120000D01*
X137113553Y-46120000D01*
X136651476Y-46582075D01*
X136775462Y-46648348D01*
X136963969Y-46705531D01*
X136963965Y-46705531D01*
X137160000Y-46724838D01*
X137356032Y-46705531D01*
X137544537Y-46648348D01*
X137668523Y-46582076D01*
X137668523Y-46582075D01*
X137206448Y-46120000D01*
X137212661Y-46120000D01*
X137314394Y-46092741D01*
X137405606Y-46040080D01*
X137480080Y-45965606D01*
X137532741Y-45874394D01*
X137560000Y-45772661D01*
X137560000Y-45766447D01*
X138022076Y-46228523D01*
X138088348Y-46104537D01*
X138145531Y-45916032D01*
X138164838Y-45720000D01*
X138164838Y-45719999D01*
X141135287Y-45719999D01*
X141135287Y-45720000D01*
X141154096Y-45922989D01*
X141154097Y-45922992D01*
X141209883Y-46119063D01*
X141209886Y-46119069D01*
X141300751Y-46301551D01*
X141302533Y-46303911D01*
X141757037Y-45849408D01*
X141774075Y-45912993D01*
X141839901Y-46027007D01*
X141932993Y-46120099D01*
X142047007Y-46185925D01*
X142110590Y-46202962D01*
X141659311Y-46654240D01*
X141747585Y-46708897D01*
X141937678Y-46782539D01*
X142138072Y-46820000D01*
X142341928Y-46820000D01*
X142542322Y-46782539D01*
X142732412Y-46708899D01*
X142732416Y-46708897D01*
X142820686Y-46654241D01*
X142820686Y-46654240D01*
X142369409Y-46202962D01*
X142432993Y-46185925D01*
X142547007Y-46120099D01*
X142640099Y-46027007D01*
X142705925Y-45912993D01*
X142722962Y-45849410D01*
X143177465Y-46303912D01*
X143179247Y-46301553D01*
X143179248Y-46301551D01*
X143270113Y-46119069D01*
X143270116Y-46119063D01*
X143325902Y-45922992D01*
X143325903Y-45922989D01*
X143344713Y-45720000D01*
X143344713Y-45719999D01*
X156374785Y-45719999D01*
X156374785Y-45720000D01*
X156393602Y-45923082D01*
X156449417Y-46119247D01*
X156449422Y-46119260D01*
X156540327Y-46301821D01*
X156663237Y-46464581D01*
X156813958Y-46601980D01*
X156813960Y-46601982D01*
X156824242Y-46608348D01*
X156987363Y-46709348D01*
X157177544Y-46783024D01*
X157378024Y-46820500D01*
X157378026Y-46820500D01*
X157581974Y-46820500D01*
X157581976Y-46820500D01*
X157782456Y-46783024D01*
X157972637Y-46709348D01*
X158146041Y-46601981D01*
X158296764Y-46464579D01*
X158419673Y-46301821D01*
X158510582Y-46119250D01*
X158566397Y-45923083D01*
X158585215Y-45720000D01*
X158581508Y-45679999D01*
X158566397Y-45516917D01*
X158542917Y-45434394D01*
X158510582Y-45320750D01*
X158510159Y-45319901D01*
X158431265Y-45161460D01*
X158419673Y-45138179D01*
X158296764Y-44975421D01*
X158296762Y-44975418D01*
X158146041Y-44838019D01*
X158146039Y-44838017D01*
X157972642Y-44730655D01*
X157972635Y-44730651D01*
X157844810Y-44681132D01*
X157782456Y-44656976D01*
X157581976Y-44619500D01*
X157378024Y-44619500D01*
X157177544Y-44656976D01*
X157177541Y-44656976D01*
X157177541Y-44656977D01*
X156987364Y-44730651D01*
X156987357Y-44730655D01*
X156813960Y-44838017D01*
X156813958Y-44838019D01*
X156663237Y-44975418D01*
X156540327Y-45138178D01*
X156449422Y-45320739D01*
X156449417Y-45320752D01*
X156393602Y-45516917D01*
X156374785Y-45719999D01*
X143344713Y-45719999D01*
X143325903Y-45517010D01*
X143325902Y-45517007D01*
X143270116Y-45320936D01*
X143270113Y-45320930D01*
X143179249Y-45138449D01*
X143179247Y-45138447D01*
X143177465Y-45136087D01*
X142722962Y-45590589D01*
X142705925Y-45527007D01*
X142640099Y-45412993D01*
X142547007Y-45319901D01*
X142432993Y-45254075D01*
X142369409Y-45237037D01*
X142820687Y-44785758D01*
X142732413Y-44731101D01*
X142732411Y-44731100D01*
X142542321Y-44657460D01*
X142341928Y-44620000D01*
X142138072Y-44620000D01*
X141937678Y-44657460D01*
X141747588Y-44731100D01*
X141747581Y-44731104D01*
X141659312Y-44785757D01*
X141659311Y-44785758D01*
X142110591Y-45237037D01*
X142047007Y-45254075D01*
X141932993Y-45319901D01*
X141839901Y-45412993D01*
X141774075Y-45527007D01*
X141757037Y-45590591D01*
X141302533Y-45136087D01*
X141300755Y-45138442D01*
X141300754Y-45138443D01*
X141209886Y-45320930D01*
X141209883Y-45320936D01*
X141154097Y-45517007D01*
X141154096Y-45517010D01*
X141135287Y-45719999D01*
X138164838Y-45719999D01*
X138145531Y-45523967D01*
X138088348Y-45335462D01*
X138022075Y-45211476D01*
X137560000Y-45673551D01*
X137560000Y-45667339D01*
X137532741Y-45565606D01*
X137480080Y-45474394D01*
X137405606Y-45399920D01*
X137314394Y-45347259D01*
X137212661Y-45320000D01*
X137206447Y-45320000D01*
X137668523Y-44857923D01*
X137668523Y-44857922D01*
X137544539Y-44791651D01*
X137356030Y-44734468D01*
X137356034Y-44734468D01*
X137160000Y-44715161D01*
X136963967Y-44734468D01*
X136775466Y-44791649D01*
X136651476Y-44857923D01*
X137113554Y-45320000D01*
X137107339Y-45320000D01*
X137005606Y-45347259D01*
X136914394Y-45399920D01*
X136839920Y-45474394D01*
X136787259Y-45565606D01*
X136760000Y-45667339D01*
X136760000Y-45673553D01*
X136297923Y-45211476D01*
X136231649Y-45335466D01*
X136174468Y-45523967D01*
X136155161Y-45720000D01*
X133080898Y-45720000D01*
X133084838Y-45680000D01*
X133065531Y-45483967D01*
X133008348Y-45295462D01*
X132942075Y-45171476D01*
X132480000Y-45633551D01*
X132480000Y-45627339D01*
X132452741Y-45525606D01*
X132400080Y-45434394D01*
X132325606Y-45359920D01*
X132234394Y-45307259D01*
X132132661Y-45280000D01*
X132126447Y-45280000D01*
X132588523Y-44817923D01*
X132588523Y-44817922D01*
X132464539Y-44751651D01*
X132276030Y-44694468D01*
X132276034Y-44694468D01*
X132080000Y-44675161D01*
X131883967Y-44694468D01*
X131695466Y-44751649D01*
X131571476Y-44817923D01*
X132033554Y-45280000D01*
X132027339Y-45280000D01*
X131925606Y-45307259D01*
X131834394Y-45359920D01*
X131759920Y-45434394D01*
X131707259Y-45525606D01*
X131680000Y-45627339D01*
X131680000Y-45633553D01*
X131217923Y-45171476D01*
X131151649Y-45295466D01*
X131094468Y-45483967D01*
X131075161Y-45680000D01*
X125461401Y-45680000D01*
X125446024Y-45523868D01*
X125388814Y-45335273D01*
X125388811Y-45335269D01*
X125388811Y-45335266D01*
X125295913Y-45161467D01*
X125295909Y-45161460D01*
X125170883Y-45009116D01*
X125018539Y-44884090D01*
X125018532Y-44884086D01*
X124844733Y-44791188D01*
X124844727Y-44791186D01*
X124656132Y-44733976D01*
X124656129Y-44733975D01*
X124460000Y-44714659D01*
X124263870Y-44733975D01*
X124075266Y-44791188D01*
X123901467Y-44884086D01*
X123901460Y-44884090D01*
X123749116Y-45009116D01*
X123624090Y-45161460D01*
X123624086Y-45161467D01*
X123531188Y-45335266D01*
X123473975Y-45523870D01*
X123454659Y-45720000D01*
X122150500Y-45720000D01*
X122150500Y-45237965D01*
X122170185Y-45170926D01*
X122186819Y-45150284D01*
X123670285Y-43666819D01*
X123731608Y-43633334D01*
X123757966Y-43630500D01*
X130955500Y-43630500D01*
X131022539Y-43650185D01*
X131068294Y-43702989D01*
X131079500Y-43754500D01*
X131079500Y-43999752D01*
X131091131Y-44058229D01*
X131091132Y-44058230D01*
X131135447Y-44124552D01*
X131201769Y-44168867D01*
X131201770Y-44168868D01*
X131260247Y-44180499D01*
X131260250Y-44180500D01*
X131260252Y-44180500D01*
X132899750Y-44180500D01*
X132899751Y-44180499D01*
X132914568Y-44177552D01*
X132958229Y-44168868D01*
X132958229Y-44168867D01*
X132958231Y-44168867D01*
X133024552Y-44124552D01*
X133068867Y-44058231D01*
X133068867Y-44058229D01*
X133068868Y-44058229D01*
X133080499Y-43999752D01*
X133080500Y-43999748D01*
X133080500Y-43999741D01*
X133081097Y-43993688D01*
X133083602Y-43993934D01*
X133100185Y-43937461D01*
X133152989Y-43891706D01*
X133204500Y-43880500D01*
X141328301Y-43880500D01*
X141395340Y-43900185D01*
X141419937Y-43920961D01*
X141423234Y-43924578D01*
X141505697Y-43999752D01*
X141569845Y-44058231D01*
X141573958Y-44061980D01*
X141573960Y-44061982D01*
X141634955Y-44099748D01*
X141747363Y-44169348D01*
X141937544Y-44243024D01*
X142138024Y-44280500D01*
X142138026Y-44280500D01*
X142341974Y-44280500D01*
X142341976Y-44280500D01*
X142542456Y-44243024D01*
X142732637Y-44169348D01*
X142906041Y-44061981D01*
X143056764Y-43924579D01*
X143179673Y-43761821D01*
X143270582Y-43579250D01*
X143326397Y-43383083D01*
X143345215Y-43180000D01*
X143326397Y-42976917D01*
X143270582Y-42780750D01*
X143260349Y-42760200D01*
X143183318Y-42605500D01*
X143179673Y-42598179D01*
X143086894Y-42475320D01*
X143056762Y-42435418D01*
X142906041Y-42298019D01*
X142906039Y-42298017D01*
X142845038Y-42260247D01*
X156379500Y-42260247D01*
X156379500Y-44099752D01*
X156391131Y-44158229D01*
X156391132Y-44158230D01*
X156435447Y-44224552D01*
X156501769Y-44268867D01*
X156501770Y-44268868D01*
X156560247Y-44280499D01*
X156560250Y-44280500D01*
X156560252Y-44280500D01*
X158399750Y-44280500D01*
X158399751Y-44280499D01*
X158414568Y-44277552D01*
X158458229Y-44268868D01*
X158458229Y-44268867D01*
X158458231Y-44268867D01*
X158524552Y-44224552D01*
X158568867Y-44158231D01*
X158568867Y-44158229D01*
X158568868Y-44158229D01*
X158580499Y-44099752D01*
X158580500Y-44099750D01*
X158580500Y-42260249D01*
X158580499Y-42260247D01*
X158568868Y-42201770D01*
X158568867Y-42201769D01*
X158524552Y-42135447D01*
X158458230Y-42091132D01*
X158458229Y-42091131D01*
X158399752Y-42079500D01*
X158399748Y-42079500D01*
X156560252Y-42079500D01*
X156560247Y-42079500D01*
X156501770Y-42091131D01*
X156501769Y-42091132D01*
X156435447Y-42135447D01*
X156391132Y-42201769D01*
X156391131Y-42201770D01*
X156379500Y-42260247D01*
X142845038Y-42260247D01*
X142732642Y-42190655D01*
X142732635Y-42190651D01*
X142574578Y-42129420D01*
X142542456Y-42116976D01*
X142341976Y-42079500D01*
X142138024Y-42079500D01*
X141937544Y-42116976D01*
X141937541Y-42116976D01*
X141937541Y-42116977D01*
X141747364Y-42190651D01*
X141747357Y-42190655D01*
X141573960Y-42298017D01*
X141573958Y-42298019D01*
X141423234Y-42435421D01*
X141419937Y-42439039D01*
X141360226Y-42475320D01*
X141328301Y-42479500D01*
X133204500Y-42479500D01*
X133137461Y-42459815D01*
X133091706Y-42407011D01*
X133082815Y-42366142D01*
X133081097Y-42366312D01*
X133080500Y-42360257D01*
X133080500Y-42360252D01*
X133072536Y-42320212D01*
X133068868Y-42301770D01*
X133068867Y-42301769D01*
X133024552Y-42235447D01*
X132958230Y-42191132D01*
X132958229Y-42191131D01*
X132899752Y-42179500D01*
X132899748Y-42179500D01*
X131260252Y-42179500D01*
X131260247Y-42179500D01*
X131201770Y-42191131D01*
X131201769Y-42191132D01*
X131135447Y-42235447D01*
X131091132Y-42301769D01*
X131091131Y-42301770D01*
X131079500Y-42360247D01*
X131079500Y-42605500D01*
X131059815Y-42672539D01*
X131007011Y-42718294D01*
X130955500Y-42729500D01*
X123460691Y-42729500D01*
X123370325Y-42753713D01*
X123370324Y-42753712D01*
X123346115Y-42760200D01*
X123346108Y-42760203D01*
X123341462Y-42762886D01*
X123279461Y-42779500D01*
X111707273Y-42779500D01*
X111605410Y-42806793D01*
X111585192Y-42818467D01*
X111583385Y-42819511D01*
X111548736Y-42839515D01*
X111514088Y-42859519D01*
X111514085Y-42859521D01*
X109740426Y-44633181D01*
X109679103Y-44666666D01*
X109652745Y-44669500D01*
X108350247Y-44669500D01*
X108291770Y-44681131D01*
X108291769Y-44681132D01*
X108225447Y-44725447D01*
X108181132Y-44791769D01*
X108181131Y-44791770D01*
X108169500Y-44850247D01*
X100500500Y-44850247D01*
X100500500Y-42129420D01*
X100520185Y-42062381D01*
X100572989Y-42016626D01*
X100642147Y-42006682D01*
X100705703Y-42035707D01*
X100742154Y-42092427D01*
X100742643Y-42092262D01*
X100743308Y-42094222D01*
X100743477Y-42094485D01*
X100743856Y-42095838D01*
X100743945Y-42096098D01*
X100827583Y-42298019D01*
X100836776Y-42320212D01*
X100958064Y-42530289D01*
X100958066Y-42530292D01*
X100958067Y-42530293D01*
X101105733Y-42722736D01*
X101105739Y-42722743D01*
X101277256Y-42894260D01*
X101277262Y-42894265D01*
X101469711Y-43041936D01*
X101679788Y-43163224D01*
X101903900Y-43256054D01*
X102138211Y-43318838D01*
X102318586Y-43342584D01*
X102378711Y-43350500D01*
X102378712Y-43350500D01*
X102621289Y-43350500D01*
X102669388Y-43344167D01*
X102861789Y-43318838D01*
X103096100Y-43256054D01*
X103320212Y-43163224D01*
X103530289Y-43041936D01*
X103722738Y-42894265D01*
X103894265Y-42722738D01*
X104041936Y-42530289D01*
X104163224Y-42320212D01*
X104256054Y-42096100D01*
X104318838Y-41861789D01*
X104350500Y-41621288D01*
X104350500Y-41378712D01*
X104318838Y-41138211D01*
X104256054Y-40903900D01*
X104163224Y-40679788D01*
X104041936Y-40469711D01*
X103894265Y-40277262D01*
X103894260Y-40277256D01*
X103722743Y-40105739D01*
X103722736Y-40105733D01*
X103530293Y-39958067D01*
X103530292Y-39958066D01*
X103530289Y-39958064D01*
X103320212Y-39836776D01*
X103096100Y-39743946D01*
X103096101Y-39743946D01*
X103096098Y-39743945D01*
X103092262Y-39742643D01*
X103092671Y-39741435D01*
X103037670Y-39707914D01*
X103007138Y-39645068D01*
X103015430Y-39575692D01*
X103059913Y-39521812D01*
X103126464Y-39500535D01*
X103129420Y-39500500D01*
X166870580Y-39500500D01*
X166937619Y-39520185D01*
G37*
%TD.AperFunction*%
%TD*%
M02*
